<mxfile host="Electron" modified="2024-02-26T21:10:49.343Z" agent="Mozilla/5.0 (Windows NT 10.0; Win64; x64) AppleWebKit/537.36 (KHTML, like Gecko) draw.io/23.1.5 Chrome/120.0.6099.109 Electron/28.1.0 Safari/537.36" etag="XxZrv5ajJ6J_gj80NYG5" version="23.1.5" type="device" pages="5">
  <diagram id="-4Q8-Cg1BeQUmNVXL0E0" name="схема сущностей">
    <mxGraphModel dx="1615" dy="1795" grid="1" gridSize="10" guides="1" tooltips="1" connect="1" arrows="1" fold="1" page="1" pageScale="1" pageWidth="1169" pageHeight="827" math="0" shadow="0">
      <root>
        <mxCell id="0" />
        <mxCell id="1" parent="0" />
        <mxCell id="TrVLkPGgWyiTw7NnNoik-2" value="" style="edgeStyle=orthogonalEdgeStyle;rounded=0;orthogonalLoop=1;jettySize=auto;html=1;endArrow=none;endFill=0;" parent="1" source="TrVLkPGgWyiTw7NnNoik-5" target="ZmeHSvJSVUyhRIUr9Ses-54" edge="1">
          <mxGeometry relative="1" as="geometry">
            <mxPoint x="1194" y="-529" as="targetPoint" />
          </mxGeometry>
        </mxCell>
        <mxCell id="TrVLkPGgWyiTw7NnNoik-4" value="" style="edgeStyle=orthogonalEdgeStyle;rounded=0;orthogonalLoop=1;jettySize=auto;html=1;endArrow=none;endFill=0;" parent="1" source="ZmeHSvJSVUyhRIUr9Ses-35" target="TrVLkPGgWyiTw7NnNoik-18" edge="1">
          <mxGeometry relative="1" as="geometry">
            <mxPoint x="701" y="-450" as="sourcePoint" />
            <mxPoint x="681" y="-430" as="targetPoint" />
          </mxGeometry>
        </mxCell>
        <mxCell id="TrVLkPGgWyiTw7NnNoik-5" value="Номер" style="whiteSpace=wrap;html=1;rounded=0;fontStyle=1;fontSize=16;" parent="1" vertex="1">
          <mxGeometry x="1014" y="-559" width="120" height="60" as="geometry" />
        </mxCell>
        <mxCell id="TrVLkPGgWyiTw7NnNoik-18" value="бронирует" style="rhombus;whiteSpace=wrap;html=1;rounded=0;fillColor=#b1ddf0;strokeColor=#10739e;" parent="1" vertex="1">
          <mxGeometry x="530" y="-560" width="80" height="80" as="geometry" />
        </mxCell>
        <mxCell id="TrVLkPGgWyiTw7NnNoik-19" value="&lt;font color=&quot;#000000&quot;&gt;M&lt;/font&gt;" style="text;html=1;strokeColor=none;fillColor=none;align=center;verticalAlign=middle;whiteSpace=wrap;rounded=0;fontSize=14;fontColor=#FF0000;" parent="1" vertex="1">
          <mxGeometry x="657.5" y="-542" width="20" height="20" as="geometry" />
        </mxCell>
        <mxCell id="TrVLkPGgWyiTw7NnNoik-24" value="" style="edgeStyle=orthogonalEdgeStyle;rounded=0;orthogonalLoop=1;jettySize=auto;html=1;endArrow=none;endFill=0;" parent="1" target="TrVLkPGgWyiTw7NnNoik-23" edge="1">
          <mxGeometry relative="1" as="geometry">
            <mxPoint x="345" y="-518.9230769230771" as="sourcePoint" />
          </mxGeometry>
        </mxCell>
        <mxCell id="kYwn_gBsh7WORZwJeUIY-2" value="" style="edgeStyle=orthogonalEdgeStyle;rounded=0;orthogonalLoop=1;jettySize=auto;html=1;endArrow=none;endFill=0;" parent="1" source="TrVLkPGgWyiTw7NnNoik-22" target="kYwn_gBsh7WORZwJeUIY-1" edge="1">
          <mxGeometry relative="1" as="geometry">
            <mxPoint x="466" y="-730" as="sourcePoint" />
          </mxGeometry>
        </mxCell>
        <mxCell id="kYwn_gBsh7WORZwJeUIY-6" value="" style="edgeStyle=orthogonalEdgeStyle;rounded=0;orthogonalLoop=1;jettySize=auto;html=1;endArrow=none;endFill=0;" parent="1" source="TrVLkPGgWyiTw7NnNoik-22" target="TrVLkPGgWyiTw7NnNoik-18" edge="1">
          <mxGeometry relative="1" as="geometry">
            <mxPoint x="521" y="-589.9973684210526" as="sourcePoint" />
            <mxPoint x="651" y="-400.05" as="targetPoint" />
          </mxGeometry>
        </mxCell>
        <mxCell id="TrVLkPGgWyiTw7NnNoik-22" value="Гость" style="whiteSpace=wrap;html=1;rounded=0;fontStyle=1;fontSize=16;" parent="1" vertex="1">
          <mxGeometry x="345" y="-550" width="120" height="60" as="geometry" />
        </mxCell>
        <mxCell id="TrVLkPGgWyiTw7NnNoik-26" value="" style="edgeStyle=orthogonalEdgeStyle;rounded=0;orthogonalLoop=1;jettySize=auto;html=1;endArrow=none;endFill=0;" parent="1" target="TrVLkPGgWyiTw7NnNoik-25" edge="1">
          <mxGeometry relative="1" as="geometry">
            <mxPoint x="190" y="-519" as="sourcePoint" />
          </mxGeometry>
        </mxCell>
        <mxCell id="TrVLkPGgWyiTw7NnNoik-23" value="просматривает" style="rhombus;whiteSpace=wrap;html=1;rounded=0;fillColor=#b1ddf0;strokeColor=#10739e;" parent="1" vertex="1">
          <mxGeometry x="190" y="-559" width="95" height="80" as="geometry" />
        </mxCell>
        <mxCell id="TrVLkPGgWyiTw7NnNoik-25" value="Услуга" style="whiteSpace=wrap;html=1;rounded=0;fontStyle=1;fontSize=16;" parent="1" vertex="1">
          <mxGeometry y="-549" width="120" height="60" as="geometry" />
        </mxCell>
        <mxCell id="TrVLkPGgWyiTw7NnNoik-27" value="создает" style="rhombus;whiteSpace=wrap;html=1;rounded=0;fillColor=#b1ddf0;strokeColor=#10739e;" parent="1" vertex="1">
          <mxGeometry x="365" y="-430" width="80" height="80" as="geometry" />
        </mxCell>
        <mxCell id="TrVLkPGgWyiTw7NnNoik-29" value="Заказ" style="whiteSpace=wrap;html=1;rounded=0;fontStyle=1;fontSize=16;" parent="1" vertex="1">
          <mxGeometry x="345" y="-290" width="120" height="60" as="geometry" />
        </mxCell>
        <mxCell id="TrVLkPGgWyiTw7NnNoik-31" value="обрабатывает" style="rhombus;whiteSpace=wrap;html=1;rounded=0;fillColor=#b1ddf0;strokeColor=#10739e;" parent="1" vertex="1">
          <mxGeometry x="527.5" y="-300" width="90" height="80" as="geometry" />
        </mxCell>
        <mxCell id="ZmeHSvJSVUyhRIUr9Ses-57" value="" style="edgeStyle=orthogonalEdgeStyle;rounded=0;orthogonalLoop=1;jettySize=auto;html=1;endArrow=none;endFill=0;" parent="1" source="TrVLkPGgWyiTw7NnNoik-33" target="ZmeHSvJSVUyhRIUr9Ses-54" edge="1">
          <mxGeometry relative="1" as="geometry">
            <mxPoint x="740" y="-370" as="targetPoint" />
            <Array as="points">
              <mxPoint x="750" y="-373" />
            </Array>
          </mxGeometry>
        </mxCell>
        <mxCell id="TrVLkPGgWyiTw7NnNoik-33" value="Сотрудник" style="whiteSpace=wrap;html=1;rounded=0;fontStyle=1;fontSize=16;" parent="1" vertex="1">
          <mxGeometry x="680" y="-290" width="120" height="60" as="geometry" />
        </mxCell>
        <mxCell id="TrVLkPGgWyiTw7NnNoik-35" value="получает" style="rhombus;whiteSpace=wrap;html=1;rounded=0;fillColor=#b1ddf0;strokeColor=#10739e;" parent="1" vertex="1">
          <mxGeometry x="695" y="-160" width="90" height="80" as="geometry" />
        </mxCell>
        <mxCell id="kYwn_gBsh7WORZwJeUIY-5" value="" style="edgeStyle=orthogonalEdgeStyle;rounded=0;orthogonalLoop=1;jettySize=auto;html=1;endArrow=none;endFill=0;" parent="1" source="kYwn_gBsh7WORZwJeUIY-1" target="kYwn_gBsh7WORZwJeUIY-4" edge="1">
          <mxGeometry relative="1" as="geometry" />
        </mxCell>
        <mxCell id="kYwn_gBsh7WORZwJeUIY-1" value="оставляет" style="rhombus;whiteSpace=wrap;html=1;rounded=0;fillColor=#b1ddf0;strokeColor=#10739e;" parent="1" vertex="1">
          <mxGeometry x="365" y="-690" width="80" height="80" as="geometry" />
        </mxCell>
        <mxCell id="kYwn_gBsh7WORZwJeUIY-4" value="Отзыв" style="whiteSpace=wrap;html=1;rounded=0;fontStyle=1;fontSize=16;" parent="1" vertex="1">
          <mxGeometry x="345" y="-800" width="120" height="60" as="geometry" />
        </mxCell>
        <mxCell id="ZmeHSvJSVUyhRIUr9Ses-1" value="" style="endArrow=none;html=1;rounded=0;" parent="1" source="TrVLkPGgWyiTw7NnNoik-29" target="TrVLkPGgWyiTw7NnNoik-31" edge="1">
          <mxGeometry width="50" height="50" relative="1" as="geometry">
            <mxPoint x="480" y="-170" as="sourcePoint" />
            <mxPoint x="530" y="-220" as="targetPoint" />
          </mxGeometry>
        </mxCell>
        <mxCell id="ZmeHSvJSVUyhRIUr9Ses-2" value="" style="endArrow=none;html=1;rounded=0;" parent="1" source="TrVLkPGgWyiTw7NnNoik-31" target="TrVLkPGgWyiTw7NnNoik-33" edge="1">
          <mxGeometry width="50" height="50" relative="1" as="geometry">
            <mxPoint x="595.5" y="-250" as="sourcePoint" />
            <mxPoint x="687.5" y="-250" as="targetPoint" />
          </mxGeometry>
        </mxCell>
        <mxCell id="ZmeHSvJSVUyhRIUr9Ses-3" value="" style="endArrow=none;html=1;rounded=0;entryX=0.5;entryY=0;entryDx=0;entryDy=0;exitX=0.5;exitY=1;exitDx=0;exitDy=0;" parent="1" source="TrVLkPGgWyiTw7NnNoik-33" target="TrVLkPGgWyiTw7NnNoik-35" edge="1">
          <mxGeometry width="50" height="50" relative="1" as="geometry">
            <mxPoint x="607" y="-250" as="sourcePoint" />
            <mxPoint x="690" y="-250" as="targetPoint" />
          </mxGeometry>
        </mxCell>
        <mxCell id="ZmeHSvJSVUyhRIUr9Ses-4" value="" style="endArrow=none;html=1;rounded=0;edgeStyle=orthogonalEdgeStyle;" parent="1" source="TrVLkPGgWyiTw7NnNoik-35" target="ZmeHSvJSVUyhRIUr9Ses-18" edge="1">
          <mxGeometry width="50" height="50" relative="1" as="geometry">
            <mxPoint x="667.5" y="-60" as="sourcePoint" />
            <mxPoint x="760.5" y="-30" as="targetPoint" />
            <Array as="points">
              <mxPoint x="660.5" y="-120" />
              <mxPoint x="660.5" y="-120" />
            </Array>
          </mxGeometry>
        </mxCell>
        <mxCell id="ZmeHSvJSVUyhRIUr9Ses-5" value="" style="endArrow=none;html=1;rounded=0;entryX=0.5;entryY=0;entryDx=0;entryDy=0;exitX=0.5;exitY=1;exitDx=0;exitDy=0;" parent="1" source="TrVLkPGgWyiTw7NnNoik-27" target="TrVLkPGgWyiTw7NnNoik-29" edge="1">
          <mxGeometry width="50" height="50" relative="1" as="geometry">
            <mxPoint x="445" y="-340" as="sourcePoint" />
            <mxPoint x="537" y="-340" as="targetPoint" />
          </mxGeometry>
        </mxCell>
        <mxCell id="ZmeHSvJSVUyhRIUr9Ses-6" value="" style="endArrow=none;html=1;rounded=0;exitX=0.5;exitY=1;exitDx=0;exitDy=0;entryX=0.5;entryY=0;entryDx=0;entryDy=0;" parent="1" source="TrVLkPGgWyiTw7NnNoik-22" target="TrVLkPGgWyiTw7NnNoik-27" edge="1">
          <mxGeometry width="50" height="50" relative="1" as="geometry">
            <mxPoint x="404.51" y="-470" as="sourcePoint" />
            <mxPoint x="420" y="-430" as="targetPoint" />
          </mxGeometry>
        </mxCell>
        <mxCell id="ZmeHSvJSVUyhRIUr9Ses-8" value="&lt;font color=&quot;#000000&quot;&gt;1&lt;/font&gt;" style="text;html=1;strokeColor=none;fillColor=none;align=center;verticalAlign=middle;whiteSpace=wrap;rounded=0;fontSize=14;fontColor=#FF0000;" parent="1" vertex="1">
          <mxGeometry x="323" y="-539" width="20" height="20" as="geometry" />
        </mxCell>
        <mxCell id="ZmeHSvJSVUyhRIUr9Ses-10" value="&lt;font color=&quot;#000000&quot;&gt;1&lt;/font&gt;" style="text;html=1;strokeColor=none;fillColor=none;align=center;verticalAlign=middle;whiteSpace=wrap;rounded=0;fontSize=14;fontColor=#FF0000;" parent="1" vertex="1">
          <mxGeometry x="471.5" y="-541" width="20" height="20" as="geometry" />
        </mxCell>
        <mxCell id="ZmeHSvJSVUyhRIUr9Ses-11" value="&lt;font color=&quot;#000000&quot;&gt;1&lt;/font&gt;" style="text;html=1;strokeColor=none;fillColor=none;align=center;verticalAlign=middle;whiteSpace=wrap;rounded=0;fontSize=14;fontColor=#FF0000;" parent="1" vertex="1">
          <mxGeometry x="406" y="-489" width="20" height="20" as="geometry" />
        </mxCell>
        <mxCell id="ZmeHSvJSVUyhRIUr9Ses-13" value="&lt;font color=&quot;#000000&quot;&gt;1&lt;/font&gt;" style="text;html=1;strokeColor=none;fillColor=none;align=center;verticalAlign=middle;whiteSpace=wrap;rounded=0;fontSize=14;fontColor=#FF0000;" parent="1" vertex="1">
          <mxGeometry x="407" y="-572" width="20" height="20" as="geometry" />
        </mxCell>
        <mxCell id="ZmeHSvJSVUyhRIUr9Ses-14" value="&lt;font color=&quot;#000000&quot;&gt;1&lt;/font&gt;" style="text;html=1;strokeColor=none;fillColor=none;align=center;verticalAlign=middle;whiteSpace=wrap;rounded=0;fontSize=14;fontColor=#FF0000;" parent="1" vertex="1">
          <mxGeometry x="660" y="-281" width="20" height="20" as="geometry" />
        </mxCell>
        <mxCell id="ZmeHSvJSVUyhRIUr9Ses-16" value="&lt;font color=&quot;#000000&quot;&gt;1&lt;/font&gt;" style="text;html=1;strokeColor=none;fillColor=none;align=center;verticalAlign=middle;whiteSpace=wrap;rounded=0;fontSize=14;fontColor=#FF0000;" parent="1" vertex="1">
          <mxGeometry x="741" y="-230" width="20" height="20" as="geometry" />
        </mxCell>
        <mxCell id="ZmeHSvJSVUyhRIUr9Ses-17" value="содержит" style="rhombus;whiteSpace=wrap;html=1;rounded=0;fillColor=#b1ddf0;strokeColor=#10739e;" parent="1" vertex="1">
          <mxGeometry x="360" y="-160" width="90" height="80" as="geometry" />
        </mxCell>
        <mxCell id="ZmeHSvJSVUyhRIUr9Ses-18" value="Уведомления" style="whiteSpace=wrap;html=1;rounded=0;fontStyle=1;fontSize=16;" parent="1" vertex="1">
          <mxGeometry x="512.5" y="-150" width="120" height="60" as="geometry" />
        </mxCell>
        <mxCell id="ZmeHSvJSVUyhRIUr9Ses-19" value="" style="endArrow=none;html=1;rounded=0;" parent="1" source="TrVLkPGgWyiTw7NnNoik-29" target="ZmeHSvJSVUyhRIUr9Ses-17" edge="1">
          <mxGeometry width="50" height="50" relative="1" as="geometry">
            <mxPoint x="405" y="-230" as="sourcePoint" />
            <mxPoint x="355" y="-250" as="targetPoint" />
          </mxGeometry>
        </mxCell>
        <mxCell id="ZmeHSvJSVUyhRIUr9Ses-20" value="" style="endArrow=none;html=1;rounded=0;" parent="1" source="ZmeHSvJSVUyhRIUr9Ses-17" target="ZmeHSvJSVUyhRIUr9Ses-18" edge="1">
          <mxGeometry width="50" height="50" relative="1" as="geometry">
            <mxPoint x="312" y="-60" as="sourcePoint" />
            <mxPoint x="395" y="-60" as="targetPoint" />
          </mxGeometry>
        </mxCell>
        <mxCell id="ZmeHSvJSVUyhRIUr9Ses-21" value="&lt;font color=&quot;#000000&quot;&gt;1&lt;/font&gt;" style="text;html=1;strokeColor=none;fillColor=none;align=center;verticalAlign=middle;whiteSpace=wrap;rounded=0;fontSize=14;fontColor=#FF0000;" parent="1" vertex="1">
          <mxGeometry x="406" y="-230" width="20" height="20" as="geometry" />
        </mxCell>
        <mxCell id="ZmeHSvJSVUyhRIUr9Ses-22" value="&lt;font color=&quot;#000000&quot;&gt;M&lt;/font&gt;" style="text;html=1;strokeColor=none;fillColor=none;align=center;verticalAlign=middle;whiteSpace=wrap;rounded=0;fontSize=14;fontColor=#FF0000;" parent="1" vertex="1">
          <mxGeometry x="405" y="-740" width="20" height="20" as="geometry" />
        </mxCell>
        <mxCell id="ZmeHSvJSVUyhRIUr9Ses-23" value="&lt;font color=&quot;#000000&quot;&gt;M&lt;/font&gt;" style="text;html=1;strokeColor=none;fillColor=none;align=center;verticalAlign=middle;whiteSpace=wrap;rounded=0;fontSize=14;fontColor=#FF0000;" parent="1" vertex="1">
          <mxGeometry x="121.5" y="-540" width="20" height="20" as="geometry" />
        </mxCell>
        <mxCell id="ZmeHSvJSVUyhRIUr9Ses-24" value="&lt;font color=&quot;#000000&quot;&gt;M&lt;/font&gt;" style="text;html=1;strokeColor=none;fillColor=none;align=center;verticalAlign=middle;whiteSpace=wrap;rounded=0;fontSize=14;fontColor=#FF0000;" parent="1" vertex="1">
          <mxGeometry x="406" y="-312" width="20" height="20" as="geometry" />
        </mxCell>
        <mxCell id="ZmeHSvJSVUyhRIUr9Ses-25" value="&lt;font color=&quot;#000000&quot;&gt;M&lt;/font&gt;" style="text;html=1;strokeColor=none;fillColor=none;align=center;verticalAlign=middle;whiteSpace=wrap;rounded=0;fontSize=14;fontColor=#FF0000;" parent="1" vertex="1">
          <mxGeometry x="491.5" y="-142" width="20" height="20" as="geometry" />
        </mxCell>
        <mxCell id="ZmeHSvJSVUyhRIUr9Ses-27" value="&lt;font color=&quot;#000000&quot;&gt;M&lt;/font&gt;" style="text;html=1;strokeColor=none;fillColor=none;align=center;verticalAlign=middle;whiteSpace=wrap;rounded=0;fontSize=14;fontColor=#FF0000;" parent="1" vertex="1">
          <mxGeometry x="632.5" y="-141" width="20" height="20" as="geometry" />
        </mxCell>
        <mxCell id="ZmeHSvJSVUyhRIUr9Ses-28" value="&lt;font color=&quot;#000000&quot;&gt;M&lt;/font&gt;" style="text;html=1;strokeColor=none;fillColor=none;align=center;verticalAlign=middle;whiteSpace=wrap;rounded=0;fontSize=14;fontColor=#FF0000;" parent="1" vertex="1">
          <mxGeometry x="466" y="-282" width="20" height="20" as="geometry" />
        </mxCell>
        <mxCell id="ZmeHSvJSVUyhRIUr9Ses-35" value="Бронь" style="whiteSpace=wrap;html=1;rounded=0;fontStyle=1;fontSize=16;" parent="1" vertex="1">
          <mxGeometry x="680" y="-550" width="160" height="60" as="geometry" />
        </mxCell>
        <mxCell id="ZmeHSvJSVUyhRIUr9Ses-54" value="обрабатывает" style="rhombus;whiteSpace=wrap;html=1;rounded=0;fillColor=#b1ddf0;strokeColor=#10739e;" parent="1" vertex="1">
          <mxGeometry x="903" y="-413" width="90" height="80" as="geometry" />
        </mxCell>
        <mxCell id="ZmeHSvJSVUyhRIUr9Ses-61" value="" style="edgeStyle=orthogonalEdgeStyle;rounded=0;orthogonalLoop=1;jettySize=auto;html=1;endArrow=none;endFill=0;" parent="1" source="ZmeHSvJSVUyhRIUr9Ses-58" target="TrVLkPGgWyiTw7NnNoik-5" edge="1">
          <mxGeometry relative="1" as="geometry">
            <mxPoint x="1050" y="-630" as="targetPoint" />
          </mxGeometry>
        </mxCell>
        <mxCell id="ZmeHSvJSVUyhRIUr9Ses-63" value="" style="edgeStyle=orthogonalEdgeStyle;rounded=0;orthogonalLoop=1;jettySize=auto;html=1;endArrow=none;endFill=0;" parent="1" source="ZmeHSvJSVUyhRIUr9Ses-58" target="ZmeHSvJSVUyhRIUr9Ses-35" edge="1">
          <mxGeometry relative="1" as="geometry">
            <mxPoint x="810" y="-630" as="targetPoint" />
          </mxGeometry>
        </mxCell>
        <mxCell id="ZmeHSvJSVUyhRIUr9Ses-58" value="бронирует" style="rhombus;whiteSpace=wrap;html=1;rounded=0;fillColor=#b1ddf0;strokeColor=#10739e;" parent="1" vertex="1">
          <mxGeometry x="890" y="-670" width="80" height="80" as="geometry" />
        </mxCell>
        <mxCell id="ZmeHSvJSVUyhRIUr9Ses-64" value="&lt;font color=&quot;#000000&quot;&gt;1&lt;/font&gt;" style="text;html=1;strokeColor=none;fillColor=none;align=center;verticalAlign=middle;whiteSpace=wrap;rounded=0;fontSize=14;fontColor=#FF0000;" parent="1" vertex="1">
          <mxGeometry x="1052" y="-582" width="20" height="20" as="geometry" />
        </mxCell>
        <mxCell id="ZmeHSvJSVUyhRIUr9Ses-65" value="&lt;font color=&quot;#000000&quot;&gt;M&lt;/font&gt;" style="text;html=1;strokeColor=none;fillColor=none;align=center;verticalAlign=middle;whiteSpace=wrap;rounded=0;fontSize=14;fontColor=#FF0000;" parent="1" vertex="1">
          <mxGeometry x="762" y="-572" width="20" height="20" as="geometry" />
        </mxCell>
        <mxCell id="ZmeHSvJSVUyhRIUr9Ses-66" value="&lt;font color=&quot;#000000&quot;&gt;M&lt;/font&gt;" style="text;html=1;strokeColor=none;fillColor=none;align=center;verticalAlign=middle;whiteSpace=wrap;rounded=0;fontSize=14;fontColor=#FF0000;" parent="1" vertex="1">
          <mxGeometry x="752" y="-310" width="20" height="20" as="geometry" />
        </mxCell>
        <mxCell id="ZmeHSvJSVUyhRIUr9Ses-68" value="&lt;font color=&quot;#000000&quot;&gt;M&lt;/font&gt;" style="text;html=1;strokeColor=none;fillColor=none;align=center;verticalAlign=middle;whiteSpace=wrap;rounded=0;fontSize=14;fontColor=#FF0000;" parent="1" vertex="1">
          <mxGeometry x="993" y="-551" width="20" height="20" as="geometry" />
        </mxCell>
      </root>
    </mxGraphModel>
  </diagram>
  <diagram id="JTTa1LJocMGijvuSu_ys" name="Страница — 2">
    <mxGraphModel dx="2784" dy="1795" grid="1" gridSize="10" guides="1" tooltips="1" connect="1" arrows="1" fold="1" page="1" pageScale="1" pageWidth="1169" pageHeight="827" math="0" shadow="0">
      <root>
        <mxCell id="0" />
        <mxCell id="1" parent="0" />
        <mxCell id="-j66DbY9BCsCWnqUHto9-2" value="" style="edgeStyle=orthogonalEdgeStyle;rounded=0;orthogonalLoop=1;jettySize=auto;html=1;endArrow=none;endFill=0;" edge="1" parent="1" source="-j66DbY9BCsCWnqUHto9-44" target="-j66DbY9BCsCWnqUHto9-4">
          <mxGeometry relative="1" as="geometry">
            <mxPoint x="701" y="-450" as="sourcePoint" />
            <mxPoint x="681" y="-430" as="targetPoint" />
          </mxGeometry>
        </mxCell>
        <mxCell id="-j66DbY9BCsCWnqUHto9-3" value="Номер" style="whiteSpace=wrap;html=1;rounded=0;fontStyle=1;fontSize=16;" vertex="1" parent="1">
          <mxGeometry x="700" y="-290" width="120" height="60" as="geometry" />
        </mxCell>
        <mxCell id="-j66DbY9BCsCWnqUHto9-4" value="бронирует" style="rhombus;whiteSpace=wrap;html=1;rounded=0;fillColor=#b1ddf0;strokeColor=#10739e;" vertex="1" parent="1">
          <mxGeometry x="530" y="-560" width="95" height="80" as="geometry" />
        </mxCell>
        <mxCell id="-j66DbY9BCsCWnqUHto9-5" value="&lt;font color=&quot;#000000&quot;&gt;M&lt;/font&gt;" style="text;html=1;strokeColor=none;fillColor=none;align=center;verticalAlign=middle;whiteSpace=wrap;rounded=0;fontSize=14;fontColor=#FF0000;" vertex="1" parent="1">
          <mxGeometry x="657.5" y="-542" width="20" height="20" as="geometry" />
        </mxCell>
        <mxCell id="-j66DbY9BCsCWnqUHto9-6" value="" style="edgeStyle=orthogonalEdgeStyle;rounded=0;orthogonalLoop=1;jettySize=auto;html=1;endArrow=none;endFill=0;" edge="1" parent="1" target="-j66DbY9BCsCWnqUHto9-58">
          <mxGeometry relative="1" as="geometry">
            <mxPoint x="345" y="-518.9230769230771" as="sourcePoint" />
          </mxGeometry>
        </mxCell>
        <mxCell id="-j66DbY9BCsCWnqUHto9-7" value="" style="edgeStyle=orthogonalEdgeStyle;rounded=0;orthogonalLoop=1;jettySize=auto;html=1;endArrow=none;endFill=0;" edge="1" parent="1" source="-j66DbY9BCsCWnqUHto9-9" target="-j66DbY9BCsCWnqUHto9-19">
          <mxGeometry relative="1" as="geometry">
            <mxPoint x="466" y="-730" as="sourcePoint" />
          </mxGeometry>
        </mxCell>
        <mxCell id="-j66DbY9BCsCWnqUHto9-8" value="" style="edgeStyle=orthogonalEdgeStyle;rounded=0;orthogonalLoop=1;jettySize=auto;html=1;endArrow=none;endFill=0;" edge="1" parent="1" source="-j66DbY9BCsCWnqUHto9-9" target="-j66DbY9BCsCWnqUHto9-4">
          <mxGeometry relative="1" as="geometry">
            <mxPoint x="521" y="-589.9973684210526" as="sourcePoint" />
            <mxPoint x="651" y="-400.05" as="targetPoint" />
          </mxGeometry>
        </mxCell>
        <mxCell id="-j66DbY9BCsCWnqUHto9-9" value="Гость" style="whiteSpace=wrap;html=1;rounded=0;fontStyle=1;fontSize=16;" vertex="1" parent="1">
          <mxGeometry x="345" y="-550" width="120" height="60" as="geometry" />
        </mxCell>
        <mxCell id="-j66DbY9BCsCWnqUHto9-10" value="" style="edgeStyle=orthogonalEdgeStyle;rounded=0;orthogonalLoop=1;jettySize=auto;html=1;endArrow=none;endFill=0;" edge="1" parent="1" source="-j66DbY9BCsCWnqUHto9-58" target="-j66DbY9BCsCWnqUHto9-53">
          <mxGeometry relative="1" as="geometry">
            <mxPoint x="65" y="-544" as="sourcePoint" />
            <mxPoint x="-157.5" y="-262" as="targetPoint" />
          </mxGeometry>
        </mxCell>
        <mxCell id="wyXjM5TcJKuxT4fctBUn-18" value="" style="edgeStyle=orthogonalEdgeStyle;rounded=0;orthogonalLoop=1;jettySize=auto;html=1;endArrow=none;endFill=0;" edge="1" parent="1" source="-j66DbY9BCsCWnqUHto9-11" target="-j66DbY9BCsCWnqUHto9-55">
          <mxGeometry relative="1" as="geometry" />
        </mxCell>
        <mxCell id="-j66DbY9BCsCWnqUHto9-11" value="Услуга" style="whiteSpace=wrap;html=1;rounded=0;fontStyle=1;fontSize=16;" vertex="1" parent="1">
          <mxGeometry x="-362.5" y="-250" width="120" height="60" as="geometry" />
        </mxCell>
        <mxCell id="-j66DbY9BCsCWnqUHto9-13" value="Заказ" style="whiteSpace=wrap;html=1;rounded=0;fontStyle=1;fontSize=16;" vertex="1" parent="1">
          <mxGeometry x="345" y="-290" width="120" height="60" as="geometry" />
        </mxCell>
        <mxCell id="-j66DbY9BCsCWnqUHto9-14" value="обрабатывает" style="rhombus;whiteSpace=wrap;html=1;rounded=0;fillColor=#b1ddf0;strokeColor=#10739e;" vertex="1" parent="1">
          <mxGeometry x="-17.5" y="-130" width="95" height="80" as="geometry" />
        </mxCell>
        <mxCell id="wyXjM5TcJKuxT4fctBUn-8" value="" style="edgeStyle=orthogonalEdgeStyle;rounded=0;orthogonalLoop=1;jettySize=auto;html=1;endArrow=none;endFill=0;" edge="1" parent="1" source="-j66DbY9BCsCWnqUHto9-16" target="-j66DbY9BCsCWnqUHto9-57">
          <mxGeometry relative="1" as="geometry" />
        </mxCell>
        <mxCell id="-j66DbY9BCsCWnqUHto9-16" value="Сотрудник" style="whiteSpace=wrap;html=1;rounded=0;fontStyle=1;fontSize=16;" vertex="1" parent="1">
          <mxGeometry x="-30" width="120" height="60" as="geometry" />
        </mxCell>
        <mxCell id="-j66DbY9BCsCWnqUHto9-17" value="получает" style="rhombus;whiteSpace=wrap;html=1;rounded=0;fillColor=#b1ddf0;strokeColor=#10739e;" vertex="1" parent="1">
          <mxGeometry x="160" y="-10" width="95" height="80" as="geometry" />
        </mxCell>
        <mxCell id="-j66DbY9BCsCWnqUHto9-18" value="" style="edgeStyle=orthogonalEdgeStyle;rounded=0;orthogonalLoop=1;jettySize=auto;html=1;endArrow=none;endFill=0;" edge="1" parent="1" source="-j66DbY9BCsCWnqUHto9-19" target="-j66DbY9BCsCWnqUHto9-20">
          <mxGeometry relative="1" as="geometry" />
        </mxCell>
        <mxCell id="-j66DbY9BCsCWnqUHto9-19" value="оставляет" style="rhombus;whiteSpace=wrap;html=1;rounded=0;fillColor=#b1ddf0;strokeColor=#10739e;" vertex="1" parent="1">
          <mxGeometry x="358" y="-690" width="95" height="80" as="geometry" />
        </mxCell>
        <mxCell id="-j66DbY9BCsCWnqUHto9-20" value="Отзыв" style="whiteSpace=wrap;html=1;rounded=0;fontStyle=1;fontSize=16;" vertex="1" parent="1">
          <mxGeometry x="345" y="-800" width="120" height="60" as="geometry" />
        </mxCell>
        <mxCell id="-j66DbY9BCsCWnqUHto9-21" value="" style="endArrow=none;html=1;rounded=0;edgeStyle=orthogonalEdgeStyle;" edge="1" parent="1" source="-j66DbY9BCsCWnqUHto9-13" target="-j66DbY9BCsCWnqUHto9-14">
          <mxGeometry width="50" height="50" relative="1" as="geometry">
            <mxPoint x="375" y="-170.00307692307712" as="sourcePoint" />
            <mxPoint x="59.999999999999545" y="-31.079999999999544" as="targetPoint" />
            <Array as="points">
              <mxPoint x="370" y="-170" />
              <mxPoint x="30" y="-170" />
            </Array>
          </mxGeometry>
        </mxCell>
        <mxCell id="-j66DbY9BCsCWnqUHto9-22" value="" style="endArrow=none;html=1;rounded=0;" edge="1" parent="1" source="-j66DbY9BCsCWnqUHto9-14" target="-j66DbY9BCsCWnqUHto9-16">
          <mxGeometry width="50" height="50" relative="1" as="geometry">
            <mxPoint x="595.5" y="-250" as="sourcePoint" />
            <mxPoint x="687.5" y="-250" as="targetPoint" />
          </mxGeometry>
        </mxCell>
        <mxCell id="-j66DbY9BCsCWnqUHto9-23" value="" style="endArrow=none;html=1;rounded=0;edgeStyle=orthogonalEdgeStyle;" edge="1" parent="1" source="-j66DbY9BCsCWnqUHto9-16" target="-j66DbY9BCsCWnqUHto9-17">
          <mxGeometry width="50" height="50" relative="1" as="geometry">
            <mxPoint x="607" y="-250" as="sourcePoint" />
            <mxPoint x="690" y="-250" as="targetPoint" />
            <Array as="points">
              <mxPoint x="160" y="20" />
              <mxPoint x="160" y="20" />
            </Array>
          </mxGeometry>
        </mxCell>
        <mxCell id="-j66DbY9BCsCWnqUHto9-24" value="" style="endArrow=none;html=1;rounded=0;edgeStyle=orthogonalEdgeStyle;" edge="1" parent="1" source="-j66DbY9BCsCWnqUHto9-17" target="-j66DbY9BCsCWnqUHto9-34">
          <mxGeometry width="50" height="50" relative="1" as="geometry">
            <mxPoint x="667.5" y="-60" as="sourcePoint" />
            <mxPoint x="760.5" y="-30" as="targetPoint" />
            <Array as="points">
              <mxPoint x="290" y="30" />
              <mxPoint x="290" y="30" />
            </Array>
          </mxGeometry>
        </mxCell>
        <mxCell id="-j66DbY9BCsCWnqUHto9-27" value="&lt;font color=&quot;#000000&quot;&gt;1&lt;/font&gt;" style="text;html=1;strokeColor=none;fillColor=none;align=center;verticalAlign=middle;whiteSpace=wrap;rounded=0;fontSize=14;fontColor=#FF0000;" vertex="1" parent="1">
          <mxGeometry x="323" y="-539" width="20" height="20" as="geometry" />
        </mxCell>
        <mxCell id="-j66DbY9BCsCWnqUHto9-28" value="&lt;font color=&quot;#000000&quot;&gt;1&lt;/font&gt;" style="text;html=1;strokeColor=none;fillColor=none;align=center;verticalAlign=middle;whiteSpace=wrap;rounded=0;fontSize=14;fontColor=#FF0000;" vertex="1" parent="1">
          <mxGeometry x="471.5" y="-541" width="20" height="20" as="geometry" />
        </mxCell>
        <mxCell id="-j66DbY9BCsCWnqUHto9-30" value="&lt;font color=&quot;#000000&quot;&gt;1&lt;/font&gt;" style="text;html=1;strokeColor=none;fillColor=none;align=center;verticalAlign=middle;whiteSpace=wrap;rounded=0;fontSize=14;fontColor=#FF0000;" vertex="1" parent="1">
          <mxGeometry x="407" y="-572" width="20" height="20" as="geometry" />
        </mxCell>
        <mxCell id="-j66DbY9BCsCWnqUHto9-32" value="&lt;font color=&quot;#000000&quot;&gt;1&lt;/font&gt;" style="text;html=1;strokeColor=none;fillColor=none;align=center;verticalAlign=middle;whiteSpace=wrap;rounded=0;fontSize=14;fontColor=#FF0000;" vertex="1" parent="1">
          <mxGeometry x="94" y="8" width="20" height="20" as="geometry" />
        </mxCell>
        <mxCell id="-j66DbY9BCsCWnqUHto9-33" value="содержит" style="rhombus;whiteSpace=wrap;html=1;rounded=0;fillColor=#b1ddf0;strokeColor=#10739e;" vertex="1" parent="1">
          <mxGeometry x="360" y="-160" width="95" height="80" as="geometry" />
        </mxCell>
        <mxCell id="-j66DbY9BCsCWnqUHto9-34" value="Уведомления" style="whiteSpace=wrap;html=1;rounded=0;fontStyle=1;fontSize=16;" vertex="1" parent="1">
          <mxGeometry x="346" width="120" height="60" as="geometry" />
        </mxCell>
        <mxCell id="-j66DbY9BCsCWnqUHto9-35" value="" style="endArrow=none;html=1;rounded=0;" edge="1" parent="1" source="-j66DbY9BCsCWnqUHto9-13" target="-j66DbY9BCsCWnqUHto9-33">
          <mxGeometry width="50" height="50" relative="1" as="geometry">
            <mxPoint x="405" y="-230" as="sourcePoint" />
            <mxPoint x="355" y="-250" as="targetPoint" />
          </mxGeometry>
        </mxCell>
        <mxCell id="-j66DbY9BCsCWnqUHto9-36" value="" style="endArrow=none;html=1;rounded=0;" edge="1" parent="1" source="-j66DbY9BCsCWnqUHto9-33" target="-j66DbY9BCsCWnqUHto9-34">
          <mxGeometry width="50" height="50" relative="1" as="geometry">
            <mxPoint x="312" y="-60" as="sourcePoint" />
            <mxPoint x="395" y="-60" as="targetPoint" />
          </mxGeometry>
        </mxCell>
        <mxCell id="-j66DbY9BCsCWnqUHto9-37" value="&lt;font color=&quot;#000000&quot;&gt;1&lt;/font&gt;" style="text;html=1;strokeColor=none;fillColor=none;align=center;verticalAlign=middle;whiteSpace=wrap;rounded=0;fontSize=14;fontColor=#FF0000;" vertex="1" parent="1">
          <mxGeometry x="406" y="-230" width="20" height="20" as="geometry" />
        </mxCell>
        <mxCell id="-j66DbY9BCsCWnqUHto9-38" value="&lt;font color=&quot;#000000&quot;&gt;M&lt;/font&gt;" style="text;html=1;strokeColor=none;fillColor=none;align=center;verticalAlign=middle;whiteSpace=wrap;rounded=0;fontSize=14;fontColor=#FF0000;" vertex="1" parent="1">
          <mxGeometry x="405" y="-740" width="20" height="20" as="geometry" />
        </mxCell>
        <mxCell id="-j66DbY9BCsCWnqUHto9-41" value="&lt;font color=&quot;#000000&quot;&gt;M&lt;/font&gt;" style="text;html=1;strokeColor=none;fillColor=none;align=center;verticalAlign=middle;whiteSpace=wrap;rounded=0;fontSize=14;fontColor=#FF0000;" vertex="1" parent="1">
          <mxGeometry x="407" y="-21" width="20" height="20" as="geometry" />
        </mxCell>
        <mxCell id="-j66DbY9BCsCWnqUHto9-42" value="&lt;font color=&quot;#000000&quot;&gt;M&lt;/font&gt;" style="text;html=1;strokeColor=none;fillColor=none;align=center;verticalAlign=middle;whiteSpace=wrap;rounded=0;fontSize=14;fontColor=#FF0000;" vertex="1" parent="1">
          <mxGeometry x="324" y="8" width="20" height="20" as="geometry" />
        </mxCell>
        <mxCell id="-j66DbY9BCsCWnqUHto9-44" value="Бронь" style="whiteSpace=wrap;html=1;rounded=0;fontStyle=1;fontSize=16;" vertex="1" parent="1">
          <mxGeometry x="699.5" y="-550" width="120" height="60" as="geometry" />
        </mxCell>
        <mxCell id="-j66DbY9BCsCWnqUHto9-46" value="" style="edgeStyle=orthogonalEdgeStyle;rounded=0;orthogonalLoop=1;jettySize=auto;html=1;endArrow=none;endFill=0;" edge="1" parent="1" source="-j66DbY9BCsCWnqUHto9-48" target="-j66DbY9BCsCWnqUHto9-3">
          <mxGeometry relative="1" as="geometry">
            <mxPoint x="1050" y="-630" as="targetPoint" />
          </mxGeometry>
        </mxCell>
        <mxCell id="-j66DbY9BCsCWnqUHto9-47" value="" style="edgeStyle=orthogonalEdgeStyle;rounded=0;orthogonalLoop=1;jettySize=auto;html=1;endArrow=none;endFill=0;" edge="1" parent="1" source="-j66DbY9BCsCWnqUHto9-48" target="-j66DbY9BCsCWnqUHto9-44">
          <mxGeometry relative="1" as="geometry">
            <mxPoint x="810" y="-630" as="targetPoint" />
          </mxGeometry>
        </mxCell>
        <mxCell id="-j66DbY9BCsCWnqUHto9-48" value="бронирует" style="rhombus;whiteSpace=wrap;html=1;rounded=0;fillColor=#b1ddf0;strokeColor=#10739e;" vertex="1" parent="1">
          <mxGeometry x="712" y="-430" width="95" height="80" as="geometry" />
        </mxCell>
        <mxCell id="-j66DbY9BCsCWnqUHto9-49" value="&lt;font color=&quot;#000000&quot;&gt;1&lt;/font&gt;" style="text;html=1;strokeColor=none;fillColor=none;align=center;verticalAlign=middle;whiteSpace=wrap;rounded=0;fontSize=14;fontColor=#FF0000;" vertex="1" parent="1">
          <mxGeometry x="762" y="-310" width="20" height="20" as="geometry" />
        </mxCell>
        <mxCell id="-j66DbY9BCsCWnqUHto9-50" value="&lt;font color=&quot;#000000&quot;&gt;M&lt;/font&gt;" style="text;html=1;strokeColor=none;fillColor=none;align=center;verticalAlign=middle;whiteSpace=wrap;rounded=0;fontSize=14;fontColor=#FF0000;" vertex="1" parent="1">
          <mxGeometry x="761" y="-488" width="20" height="20" as="geometry" />
        </mxCell>
        <mxCell id="wyXjM5TcJKuxT4fctBUn-20" value="" style="edgeStyle=orthogonalEdgeStyle;rounded=0;orthogonalLoop=1;jettySize=auto;html=1;endArrow=none;endFill=0;" edge="1" parent="1" source="-j66DbY9BCsCWnqUHto9-53" target="-j66DbY9BCsCWnqUHto9-56">
          <mxGeometry relative="1" as="geometry" />
        </mxCell>
        <mxCell id="-j66DbY9BCsCWnqUHto9-53" value="Список услуг" style="whiteSpace=wrap;html=1;rounded=0;fontStyle=1;fontSize=16;" vertex="1" parent="1">
          <mxGeometry x="-200" y="-400" width="120" height="60" as="geometry" />
        </mxCell>
        <mxCell id="wyXjM5TcJKuxT4fctBUn-23" value="" style="edgeStyle=orthogonalEdgeStyle;rounded=0;orthogonalLoop=1;jettySize=auto;html=1;endArrow=none;endFill=0;" edge="1" parent="1" source="-j66DbY9BCsCWnqUHto9-54" target="wyXjM5TcJKuxT4fctBUn-15">
          <mxGeometry relative="1" as="geometry">
            <mxPoint x="155" y="-400" as="targetPoint" />
          </mxGeometry>
        </mxCell>
        <mxCell id="-j66DbY9BCsCWnqUHto9-54" value="Услуга в заказе" style="whiteSpace=wrap;html=1;rounded=0;fontStyle=1;fontSize=16;" vertex="1" parent="1">
          <mxGeometry x="-40" y="-290" width="130" height="60" as="geometry" />
        </mxCell>
        <mxCell id="wyXjM5TcJKuxT4fctBUn-19" value="" style="edgeStyle=orthogonalEdgeStyle;rounded=0;orthogonalLoop=1;jettySize=auto;html=1;endArrow=none;endFill=0;" edge="1" parent="1" source="-j66DbY9BCsCWnqUHto9-55" target="-j66DbY9BCsCWnqUHto9-53">
          <mxGeometry relative="1" as="geometry" />
        </mxCell>
        <mxCell id="-j66DbY9BCsCWnqUHto9-55" value="содержит" style="rhombus;whiteSpace=wrap;html=1;rounded=0;fillColor=#b1ddf0;strokeColor=#10739e;" vertex="1" parent="1">
          <mxGeometry x="-350" y="-410" width="95" height="80" as="geometry" />
        </mxCell>
        <mxCell id="wyXjM5TcJKuxT4fctBUn-21" value="" style="edgeStyle=orthogonalEdgeStyle;rounded=0;orthogonalLoop=1;jettySize=auto;html=1;endArrow=none;endFill=0;" edge="1" parent="1" source="-j66DbY9BCsCWnqUHto9-56" target="-j66DbY9BCsCWnqUHto9-54">
          <mxGeometry relative="1" as="geometry" />
        </mxCell>
        <mxCell id="-j66DbY9BCsCWnqUHto9-56" value="содержит" style="rhombus;whiteSpace=wrap;html=1;rounded=0;fillColor=#b1ddf0;strokeColor=#10739e;" vertex="1" parent="1">
          <mxGeometry x="-22.5" y="-410" width="95" height="80" as="geometry" />
        </mxCell>
        <mxCell id="wyXjM5TcJKuxT4fctBUn-10" value="" style="edgeStyle=orthogonalEdgeStyle;rounded=0;orthogonalLoop=1;jettySize=auto;html=1;endArrow=none;endFill=0;" edge="1" parent="1" source="-j66DbY9BCsCWnqUHto9-57" target="-j66DbY9BCsCWnqUHto9-53">
          <mxGeometry relative="1" as="geometry">
            <mxPoint x="-199.5" y="-90" as="targetPoint" />
          </mxGeometry>
        </mxCell>
        <mxCell id="-j66DbY9BCsCWnqUHto9-57" value="формирует" style="rhombus;whiteSpace=wrap;html=1;rounded=0;fillColor=#b1ddf0;strokeColor=#10739e;" vertex="1" parent="1">
          <mxGeometry x="-187.5" y="-10" width="95" height="80" as="geometry" />
        </mxCell>
        <mxCell id="-j66DbY9BCsCWnqUHto9-58" value="просматривает" style="rhombus;whiteSpace=wrap;html=1;rounded=0;fillColor=#b1ddf0;strokeColor=#10739e;" vertex="1" parent="1">
          <mxGeometry x="120" y="-559" width="95" height="80" as="geometry" />
        </mxCell>
        <mxCell id="wyXjM5TcJKuxT4fctBUn-13" value="&lt;font color=&quot;#000000&quot;&gt;1&lt;/font&gt;" style="text;html=1;strokeColor=none;fillColor=none;align=center;verticalAlign=middle;whiteSpace=wrap;rounded=0;fontSize=14;fontColor=#FF0000;" vertex="1" parent="1">
          <mxGeometry x="31" y="-21" width="20" height="20" as="geometry" />
        </mxCell>
        <mxCell id="wyXjM5TcJKuxT4fctBUn-14" value="&lt;font color=&quot;#000000&quot;&gt;M&lt;/font&gt;" style="text;html=1;strokeColor=none;fillColor=none;align=center;verticalAlign=middle;whiteSpace=wrap;rounded=0;fontSize=14;fontColor=#FF0000;" vertex="1" parent="1">
          <mxGeometry x="348" y="-226" width="20" height="20" as="geometry" />
        </mxCell>
        <mxCell id="wyXjM5TcJKuxT4fctBUn-25" value="" style="edgeStyle=orthogonalEdgeStyle;rounded=0;orthogonalLoop=1;jettySize=auto;html=1;endArrow=none;endFill=0;" edge="1" parent="1" source="wyXjM5TcJKuxT4fctBUn-15" target="-j66DbY9BCsCWnqUHto9-13">
          <mxGeometry relative="1" as="geometry" />
        </mxCell>
        <mxCell id="wyXjM5TcJKuxT4fctBUn-15" value="содержит" style="rhombus;whiteSpace=wrap;html=1;rounded=0;fillColor=#b1ddf0;strokeColor=#10739e;" vertex="1" parent="1">
          <mxGeometry x="176" y="-300" width="95" height="80" as="geometry" />
        </mxCell>
        <mxCell id="wyXjM5TcJKuxT4fctBUn-26" value="&lt;font color=&quot;#000000&quot;&gt;1&lt;/font&gt;" style="text;html=1;strokeColor=none;fillColor=none;align=center;verticalAlign=middle;whiteSpace=wrap;rounded=0;fontSize=14;fontColor=#FF0000;" vertex="1" parent="1">
          <mxGeometry x="-78" y="-393" width="20" height="20" as="geometry" />
        </mxCell>
        <mxCell id="wyXjM5TcJKuxT4fctBUn-27" value="&lt;font color=&quot;#000000&quot;&gt;1&lt;/font&gt;" style="text;html=1;strokeColor=none;fillColor=none;align=center;verticalAlign=middle;whiteSpace=wrap;rounded=0;fontSize=14;fontColor=#FF0000;" vertex="1" parent="1">
          <mxGeometry x="-137" y="-339" width="20" height="20" as="geometry" />
        </mxCell>
        <mxCell id="wyXjM5TcJKuxT4fctBUn-28" value="&lt;font color=&quot;#000000&quot;&gt;1&lt;/font&gt;" style="text;html=1;strokeColor=none;fillColor=none;align=center;verticalAlign=middle;whiteSpace=wrap;rounded=0;fontSize=14;fontColor=#FF0000;" vertex="1" parent="1">
          <mxGeometry x="-54" y="9" width="20" height="20" as="geometry" />
        </mxCell>
        <mxCell id="wyXjM5TcJKuxT4fctBUn-29" value="&lt;font color=&quot;#000000&quot;&gt;1&lt;/font&gt;" style="text;html=1;strokeColor=none;fillColor=none;align=center;verticalAlign=middle;whiteSpace=wrap;rounded=0;fontSize=14;fontColor=#FF0000;" vertex="1" parent="1">
          <mxGeometry x="-222" y="-366" width="20" height="20" as="geometry" />
        </mxCell>
        <mxCell id="wyXjM5TcJKuxT4fctBUn-30" value="&lt;font color=&quot;#000000&quot;&gt;M&lt;/font&gt;" style="text;html=1;strokeColor=none;fillColor=none;align=center;verticalAlign=middle;whiteSpace=wrap;rounded=0;fontSize=14;fontColor=#FF0000;" vertex="1" parent="1">
          <mxGeometry x="-300" y="-273" width="20" height="20" as="geometry" />
        </mxCell>
        <mxCell id="wyXjM5TcJKuxT4fctBUn-31" value="&lt;font color=&quot;#000000&quot;&gt;M&lt;/font&gt;" style="text;html=1;strokeColor=none;fillColor=none;align=center;verticalAlign=middle;whiteSpace=wrap;rounded=0;fontSize=14;fontColor=#FF0000;" vertex="1" parent="1">
          <mxGeometry x="29" y="-312" width="20" height="20" as="geometry" />
        </mxCell>
        <mxCell id="wyXjM5TcJKuxT4fctBUn-33" value="&lt;font color=&quot;#000000&quot;&gt;M&lt;/font&gt;" style="text;html=1;strokeColor=none;fillColor=none;align=center;verticalAlign=middle;whiteSpace=wrap;rounded=0;fontSize=14;fontColor=#FF0000;" vertex="1" parent="1">
          <mxGeometry x="90" y="-282" width="20" height="20" as="geometry" />
        </mxCell>
        <mxCell id="wyXjM5TcJKuxT4fctBUn-34" value="&lt;font color=&quot;#000000&quot;&gt;1&lt;/font&gt;" style="text;html=1;strokeColor=none;fillColor=none;align=center;verticalAlign=middle;whiteSpace=wrap;rounded=0;fontSize=14;fontColor=#FF0000;" vertex="1" parent="1">
          <mxGeometry x="-139" y="-423" width="20" height="20" as="geometry" />
        </mxCell>
        <mxCell id="wyXjM5TcJKuxT4fctBUn-35" value="&lt;font color=&quot;#000000&quot;&gt;1&lt;/font&gt;" style="text;html=1;strokeColor=none;fillColor=none;align=center;verticalAlign=middle;whiteSpace=wrap;rounded=0;fontSize=14;fontColor=#FF0000;" vertex="1" parent="1">
          <mxGeometry x="322" y="-282" width="20" height="20" as="geometry" />
        </mxCell>
      </root>
    </mxGraphModel>
  </diagram>
  <diagram id="yRGI55doktlePEJ89lFB" name="Страница — 3">
    <mxGraphModel dx="2100" dy="1258" grid="1" gridSize="10" guides="1" tooltips="1" connect="1" arrows="1" fold="1" page="1" pageScale="1" pageWidth="1169" pageHeight="827" math="0" shadow="0">
      <root>
        <mxCell id="0" />
        <mxCell id="1" parent="0" />
        <mxCell id="faSnwYjg7DTad4G3PKVo-131" value="" style="edgeStyle=orthogonalEdgeStyle;rounded=0;orthogonalLoop=1;jettySize=auto;html=1;endArrow=none;endFill=0;" edge="1" parent="1" source="faSnwYjg7DTad4G3PKVo-166" target="faSnwYjg7DTad4G3PKVo-133">
          <mxGeometry relative="1" as="geometry">
            <mxPoint x="1063.5" y="350" as="sourcePoint" />
            <mxPoint x="1043.5" y="370" as="targetPoint" />
          </mxGeometry>
        </mxCell>
        <mxCell id="faSnwYjg7DTad4G3PKVo-132" value="Номер" style="whiteSpace=wrap;html=1;rounded=0;fontStyle=1;fontSize=16;" vertex="1" parent="1">
          <mxGeometry x="1062.5" y="510" width="120" height="60" as="geometry" />
        </mxCell>
        <mxCell id="faSnwYjg7DTad4G3PKVo-133" value="бронирует" style="rhombus;whiteSpace=wrap;html=1;rounded=0;fillColor=#b1ddf0;strokeColor=#10739e;" vertex="1" parent="1">
          <mxGeometry x="892.5" y="240" width="95" height="80" as="geometry" />
        </mxCell>
        <mxCell id="faSnwYjg7DTad4G3PKVo-134" value="&lt;font color=&quot;#000000&quot;&gt;M&lt;/font&gt;" style="text;html=1;strokeColor=none;fillColor=none;align=center;verticalAlign=middle;whiteSpace=wrap;rounded=0;fontSize=14;fontColor=#FF0000;" vertex="1" parent="1">
          <mxGeometry x="1020" y="258" width="20" height="20" as="geometry" />
        </mxCell>
        <mxCell id="faSnwYjg7DTad4G3PKVo-135" value="" style="edgeStyle=orthogonalEdgeStyle;rounded=0;orthogonalLoop=1;jettySize=auto;html=1;endArrow=none;endFill=0;" edge="1" parent="1" target="faSnwYjg7DTad4G3PKVo-182">
          <mxGeometry relative="1" as="geometry">
            <mxPoint x="707.5" y="281.07692307692287" as="sourcePoint" />
          </mxGeometry>
        </mxCell>
        <mxCell id="faSnwYjg7DTad4G3PKVo-136" value="" style="edgeStyle=orthogonalEdgeStyle;rounded=0;orthogonalLoop=1;jettySize=auto;html=1;endArrow=none;endFill=0;" edge="1" parent="1" source="faSnwYjg7DTad4G3PKVo-138" target="faSnwYjg7DTad4G3PKVo-148">
          <mxGeometry relative="1" as="geometry">
            <mxPoint x="828.5" y="70" as="sourcePoint" />
          </mxGeometry>
        </mxCell>
        <mxCell id="faSnwYjg7DTad4G3PKVo-137" value="" style="edgeStyle=orthogonalEdgeStyle;rounded=0;orthogonalLoop=1;jettySize=auto;html=1;endArrow=none;endFill=0;" edge="1" parent="1" source="faSnwYjg7DTad4G3PKVo-138" target="faSnwYjg7DTad4G3PKVo-133">
          <mxGeometry relative="1" as="geometry">
            <mxPoint x="883.5" y="210.00263157894744" as="sourcePoint" />
            <mxPoint x="1013.5" y="399.95" as="targetPoint" />
          </mxGeometry>
        </mxCell>
        <mxCell id="faSnwYjg7DTad4G3PKVo-138" value="Гость" style="whiteSpace=wrap;html=1;rounded=0;fontStyle=1;fontSize=16;" vertex="1" parent="1">
          <mxGeometry x="707.5" y="250" width="120" height="60" as="geometry" />
        </mxCell>
        <mxCell id="faSnwYjg7DTad4G3PKVo-139" value="" style="edgeStyle=orthogonalEdgeStyle;rounded=0;orthogonalLoop=1;jettySize=auto;html=1;endArrow=none;endFill=0;" edge="1" parent="1" source="faSnwYjg7DTad4G3PKVo-182" target="faSnwYjg7DTad4G3PKVo-173">
          <mxGeometry relative="1" as="geometry">
            <mxPoint x="427.5" y="256" as="sourcePoint" />
            <mxPoint x="205" y="538" as="targetPoint" />
          </mxGeometry>
        </mxCell>
        <mxCell id="faSnwYjg7DTad4G3PKVo-140" value="" style="edgeStyle=orthogonalEdgeStyle;rounded=0;orthogonalLoop=1;jettySize=auto;html=1;endArrow=none;endFill=0;" edge="1" parent="1" source="faSnwYjg7DTad4G3PKVo-141" target="faSnwYjg7DTad4G3PKVo-177">
          <mxGeometry relative="1" as="geometry" />
        </mxCell>
        <mxCell id="faSnwYjg7DTad4G3PKVo-141" value="Услуга" style="whiteSpace=wrap;html=1;rounded=0;fontStyle=1;fontSize=16;" vertex="1" parent="1">
          <mxGeometry y="550" width="120" height="60" as="geometry" />
        </mxCell>
        <mxCell id="faSnwYjg7DTad4G3PKVo-142" value="Заказ" style="whiteSpace=wrap;html=1;rounded=0;fontStyle=1;fontSize=16;" vertex="1" parent="1">
          <mxGeometry x="707.5" y="510" width="120" height="60" as="geometry" />
        </mxCell>
        <mxCell id="faSnwYjg7DTad4G3PKVo-143" value="обрабатывает" style="rhombus;whiteSpace=wrap;html=1;rounded=0;fillColor=#b1ddf0;strokeColor=#10739e;" vertex="1" parent="1">
          <mxGeometry x="345" y="670" width="95" height="80" as="geometry" />
        </mxCell>
        <mxCell id="faSnwYjg7DTad4G3PKVo-144" value="" style="edgeStyle=orthogonalEdgeStyle;rounded=0;orthogonalLoop=1;jettySize=auto;html=1;endArrow=none;endFill=0;" edge="1" parent="1" source="faSnwYjg7DTad4G3PKVo-145" target="faSnwYjg7DTad4G3PKVo-181">
          <mxGeometry relative="1" as="geometry" />
        </mxCell>
        <mxCell id="faSnwYjg7DTad4G3PKVo-145" value="Сотрудник" style="whiteSpace=wrap;html=1;rounded=0;fontStyle=1;fontSize=16;" vertex="1" parent="1">
          <mxGeometry x="332.5" y="800" width="120" height="60" as="geometry" />
        </mxCell>
        <mxCell id="faSnwYjg7DTad4G3PKVo-146" value="получает" style="rhombus;whiteSpace=wrap;html=1;rounded=0;fillColor=#b1ddf0;strokeColor=#10739e;" vertex="1" parent="1">
          <mxGeometry x="522.5" y="790" width="95" height="80" as="geometry" />
        </mxCell>
        <mxCell id="faSnwYjg7DTad4G3PKVo-147" value="" style="edgeStyle=orthogonalEdgeStyle;rounded=0;orthogonalLoop=1;jettySize=auto;html=1;endArrow=none;endFill=0;" edge="1" parent="1" source="faSnwYjg7DTad4G3PKVo-148" target="faSnwYjg7DTad4G3PKVo-149">
          <mxGeometry relative="1" as="geometry" />
        </mxCell>
        <mxCell id="faSnwYjg7DTad4G3PKVo-148" value="оставляет" style="rhombus;whiteSpace=wrap;html=1;rounded=0;fillColor=#b1ddf0;strokeColor=#10739e;" vertex="1" parent="1">
          <mxGeometry x="720.5" y="110" width="95" height="80" as="geometry" />
        </mxCell>
        <mxCell id="faSnwYjg7DTad4G3PKVo-149" value="Отзыв" style="whiteSpace=wrap;html=1;rounded=0;fontStyle=1;fontSize=16;" vertex="1" parent="1">
          <mxGeometry x="707.5" width="120" height="60" as="geometry" />
        </mxCell>
        <mxCell id="faSnwYjg7DTad4G3PKVo-150" value="" style="endArrow=none;html=1;rounded=0;edgeStyle=orthogonalEdgeStyle;" edge="1" parent="1" source="faSnwYjg7DTad4G3PKVo-142" target="faSnwYjg7DTad4G3PKVo-143">
          <mxGeometry width="50" height="50" relative="1" as="geometry">
            <mxPoint x="737.5" y="629.9969230769229" as="sourcePoint" />
            <mxPoint x="422.49999999999955" y="768.9200000000004" as="targetPoint" />
            <Array as="points">
              <mxPoint x="732.5" y="630" />
              <mxPoint x="392.5" y="630" />
            </Array>
          </mxGeometry>
        </mxCell>
        <mxCell id="faSnwYjg7DTad4G3PKVo-151" value="" style="endArrow=none;html=1;rounded=0;" edge="1" parent="1" source="faSnwYjg7DTad4G3PKVo-143" target="faSnwYjg7DTad4G3PKVo-145">
          <mxGeometry width="50" height="50" relative="1" as="geometry">
            <mxPoint x="958" y="550" as="sourcePoint" />
            <mxPoint x="1050" y="550" as="targetPoint" />
          </mxGeometry>
        </mxCell>
        <mxCell id="faSnwYjg7DTad4G3PKVo-152" value="" style="endArrow=none;html=1;rounded=0;edgeStyle=orthogonalEdgeStyle;" edge="1" parent="1" source="faSnwYjg7DTad4G3PKVo-145" target="faSnwYjg7DTad4G3PKVo-146">
          <mxGeometry width="50" height="50" relative="1" as="geometry">
            <mxPoint x="969.5" y="550" as="sourcePoint" />
            <mxPoint x="1052.5" y="550" as="targetPoint" />
            <Array as="points">
              <mxPoint x="522.5" y="820" />
              <mxPoint x="522.5" y="820" />
            </Array>
          </mxGeometry>
        </mxCell>
        <mxCell id="faSnwYjg7DTad4G3PKVo-153" value="" style="endArrow=none;html=1;rounded=0;edgeStyle=orthogonalEdgeStyle;" edge="1" parent="1" source="faSnwYjg7DTad4G3PKVo-146" target="faSnwYjg7DTad4G3PKVo-159">
          <mxGeometry width="50" height="50" relative="1" as="geometry">
            <mxPoint x="1030" y="740" as="sourcePoint" />
            <mxPoint x="1123" y="770" as="targetPoint" />
            <Array as="points">
              <mxPoint x="652.5" y="830" />
              <mxPoint x="652.5" y="830" />
            </Array>
          </mxGeometry>
        </mxCell>
        <mxCell id="faSnwYjg7DTad4G3PKVo-154" value="&lt;font color=&quot;#000000&quot;&gt;1&lt;/font&gt;" style="text;html=1;strokeColor=none;fillColor=none;align=center;verticalAlign=middle;whiteSpace=wrap;rounded=0;fontSize=14;fontColor=#FF0000;" vertex="1" parent="1">
          <mxGeometry x="685.5" y="261" width="20" height="20" as="geometry" />
        </mxCell>
        <mxCell id="faSnwYjg7DTad4G3PKVo-155" value="&lt;font color=&quot;#000000&quot;&gt;1&lt;/font&gt;" style="text;html=1;strokeColor=none;fillColor=none;align=center;verticalAlign=middle;whiteSpace=wrap;rounded=0;fontSize=14;fontColor=#FF0000;" vertex="1" parent="1">
          <mxGeometry x="834" y="259" width="20" height="20" as="geometry" />
        </mxCell>
        <mxCell id="faSnwYjg7DTad4G3PKVo-156" value="&lt;font color=&quot;#000000&quot;&gt;1&lt;/font&gt;" style="text;html=1;strokeColor=none;fillColor=none;align=center;verticalAlign=middle;whiteSpace=wrap;rounded=0;fontSize=14;fontColor=#FF0000;" vertex="1" parent="1">
          <mxGeometry x="769.5" y="228" width="20" height="20" as="geometry" />
        </mxCell>
        <mxCell id="faSnwYjg7DTad4G3PKVo-157" value="&lt;font color=&quot;#000000&quot;&gt;1&lt;/font&gt;" style="text;html=1;strokeColor=none;fillColor=none;align=center;verticalAlign=middle;whiteSpace=wrap;rounded=0;fontSize=14;fontColor=#FF0000;" vertex="1" parent="1">
          <mxGeometry x="456.5" y="808" width="20" height="20" as="geometry" />
        </mxCell>
        <mxCell id="faSnwYjg7DTad4G3PKVo-158" value="содержит" style="rhombus;whiteSpace=wrap;html=1;rounded=0;fillColor=#b1ddf0;strokeColor=#10739e;" vertex="1" parent="1">
          <mxGeometry x="722.5" y="640" width="95" height="80" as="geometry" />
        </mxCell>
        <mxCell id="faSnwYjg7DTad4G3PKVo-159" value="Уведомления" style="whiteSpace=wrap;html=1;rounded=0;fontStyle=1;fontSize=16;" vertex="1" parent="1">
          <mxGeometry x="708.5" y="800" width="120" height="60" as="geometry" />
        </mxCell>
        <mxCell id="faSnwYjg7DTad4G3PKVo-160" value="" style="endArrow=none;html=1;rounded=0;" edge="1" parent="1" source="faSnwYjg7DTad4G3PKVo-142" target="faSnwYjg7DTad4G3PKVo-158">
          <mxGeometry width="50" height="50" relative="1" as="geometry">
            <mxPoint x="767.5" y="570" as="sourcePoint" />
            <mxPoint x="717.5" y="550" as="targetPoint" />
          </mxGeometry>
        </mxCell>
        <mxCell id="faSnwYjg7DTad4G3PKVo-161" value="" style="endArrow=none;html=1;rounded=0;" edge="1" parent="1" source="faSnwYjg7DTad4G3PKVo-158" target="faSnwYjg7DTad4G3PKVo-159">
          <mxGeometry width="50" height="50" relative="1" as="geometry">
            <mxPoint x="674.5" y="740" as="sourcePoint" />
            <mxPoint x="757.5" y="740" as="targetPoint" />
          </mxGeometry>
        </mxCell>
        <mxCell id="faSnwYjg7DTad4G3PKVo-162" value="&lt;font color=&quot;#000000&quot;&gt;1&lt;/font&gt;" style="text;html=1;strokeColor=none;fillColor=none;align=center;verticalAlign=middle;whiteSpace=wrap;rounded=0;fontSize=14;fontColor=#FF0000;" vertex="1" parent="1">
          <mxGeometry x="768.5" y="570" width="20" height="20" as="geometry" />
        </mxCell>
        <mxCell id="faSnwYjg7DTad4G3PKVo-163" value="&lt;font color=&quot;#000000&quot;&gt;M&lt;/font&gt;" style="text;html=1;strokeColor=none;fillColor=none;align=center;verticalAlign=middle;whiteSpace=wrap;rounded=0;fontSize=14;fontColor=#FF0000;" vertex="1" parent="1">
          <mxGeometry x="767.5" y="60" width="20" height="20" as="geometry" />
        </mxCell>
        <mxCell id="faSnwYjg7DTad4G3PKVo-164" value="&lt;font color=&quot;#000000&quot;&gt;M&lt;/font&gt;" style="text;html=1;strokeColor=none;fillColor=none;align=center;verticalAlign=middle;whiteSpace=wrap;rounded=0;fontSize=14;fontColor=#FF0000;" vertex="1" parent="1">
          <mxGeometry x="769.5" y="779" width="20" height="20" as="geometry" />
        </mxCell>
        <mxCell id="faSnwYjg7DTad4G3PKVo-165" value="&lt;font color=&quot;#000000&quot;&gt;M&lt;/font&gt;" style="text;html=1;strokeColor=none;fillColor=none;align=center;verticalAlign=middle;whiteSpace=wrap;rounded=0;fontSize=14;fontColor=#FF0000;" vertex="1" parent="1">
          <mxGeometry x="686.5" y="808" width="20" height="20" as="geometry" />
        </mxCell>
        <mxCell id="faSnwYjg7DTad4G3PKVo-166" value="Бронь" style="whiteSpace=wrap;html=1;rounded=0;fontStyle=1;fontSize=16;" vertex="1" parent="1">
          <mxGeometry x="1062" y="250" width="120" height="60" as="geometry" />
        </mxCell>
        <mxCell id="faSnwYjg7DTad4G3PKVo-167" value="" style="edgeStyle=orthogonalEdgeStyle;rounded=0;orthogonalLoop=1;jettySize=auto;html=1;endArrow=none;endFill=0;" edge="1" parent="1" source="faSnwYjg7DTad4G3PKVo-169" target="faSnwYjg7DTad4G3PKVo-132">
          <mxGeometry relative="1" as="geometry">
            <mxPoint x="1412.5" y="170" as="targetPoint" />
          </mxGeometry>
        </mxCell>
        <mxCell id="faSnwYjg7DTad4G3PKVo-168" value="" style="edgeStyle=orthogonalEdgeStyle;rounded=0;orthogonalLoop=1;jettySize=auto;html=1;endArrow=none;endFill=0;" edge="1" parent="1" source="faSnwYjg7DTad4G3PKVo-169" target="faSnwYjg7DTad4G3PKVo-166">
          <mxGeometry relative="1" as="geometry">
            <mxPoint x="1172.5" y="170" as="targetPoint" />
          </mxGeometry>
        </mxCell>
        <mxCell id="faSnwYjg7DTad4G3PKVo-169" value="бронирует" style="rhombus;whiteSpace=wrap;html=1;rounded=0;fillColor=#b1ddf0;strokeColor=#10739e;" vertex="1" parent="1">
          <mxGeometry x="1074.5" y="370" width="95" height="80" as="geometry" />
        </mxCell>
        <mxCell id="faSnwYjg7DTad4G3PKVo-170" value="&lt;font color=&quot;#000000&quot;&gt;1&lt;/font&gt;" style="text;html=1;strokeColor=none;fillColor=none;align=center;verticalAlign=middle;whiteSpace=wrap;rounded=0;fontSize=14;fontColor=#FF0000;" vertex="1" parent="1">
          <mxGeometry x="1124.5" y="490" width="20" height="20" as="geometry" />
        </mxCell>
        <mxCell id="faSnwYjg7DTad4G3PKVo-171" value="&lt;font color=&quot;#000000&quot;&gt;M&lt;/font&gt;" style="text;html=1;strokeColor=none;fillColor=none;align=center;verticalAlign=middle;whiteSpace=wrap;rounded=0;fontSize=14;fontColor=#FF0000;" vertex="1" parent="1">
          <mxGeometry x="1123.5" y="312" width="20" height="20" as="geometry" />
        </mxCell>
        <mxCell id="faSnwYjg7DTad4G3PKVo-172" value="" style="edgeStyle=orthogonalEdgeStyle;rounded=0;orthogonalLoop=1;jettySize=auto;html=1;endArrow=none;endFill=0;" edge="1" parent="1" source="faSnwYjg7DTad4G3PKVo-173" target="faSnwYjg7DTad4G3PKVo-179">
          <mxGeometry relative="1" as="geometry" />
        </mxCell>
        <mxCell id="faSnwYjg7DTad4G3PKVo-173" value="Список услуг" style="whiteSpace=wrap;html=1;rounded=0;fontStyle=1;fontSize=16;" vertex="1" parent="1">
          <mxGeometry x="162.5" y="400" width="120" height="60" as="geometry" />
        </mxCell>
        <mxCell id="faSnwYjg7DTad4G3PKVo-174" value="" style="edgeStyle=orthogonalEdgeStyle;rounded=0;orthogonalLoop=1;jettySize=auto;html=1;endArrow=none;endFill=0;" edge="1" parent="1" source="faSnwYjg7DTad4G3PKVo-175" target="faSnwYjg7DTad4G3PKVo-186">
          <mxGeometry relative="1" as="geometry">
            <mxPoint x="517.5" y="400" as="targetPoint" />
          </mxGeometry>
        </mxCell>
        <mxCell id="faSnwYjg7DTad4G3PKVo-175" value="Услуга в заказе" style="whiteSpace=wrap;html=1;rounded=0;fontStyle=1;fontSize=16;" vertex="1" parent="1">
          <mxGeometry x="322.5" y="510" width="130" height="60" as="geometry" />
        </mxCell>
        <mxCell id="faSnwYjg7DTad4G3PKVo-176" value="" style="edgeStyle=orthogonalEdgeStyle;rounded=0;orthogonalLoop=1;jettySize=auto;html=1;endArrow=none;endFill=0;" edge="1" parent="1" source="faSnwYjg7DTad4G3PKVo-177" target="faSnwYjg7DTad4G3PKVo-173">
          <mxGeometry relative="1" as="geometry" />
        </mxCell>
        <mxCell id="faSnwYjg7DTad4G3PKVo-177" value="содержит" style="rhombus;whiteSpace=wrap;html=1;rounded=0;fillColor=#b1ddf0;strokeColor=#10739e;" vertex="1" parent="1">
          <mxGeometry x="12.5" y="390" width="95" height="80" as="geometry" />
        </mxCell>
        <mxCell id="faSnwYjg7DTad4G3PKVo-178" value="" style="edgeStyle=orthogonalEdgeStyle;rounded=0;orthogonalLoop=1;jettySize=auto;html=1;endArrow=none;endFill=0;" edge="1" parent="1" source="faSnwYjg7DTad4G3PKVo-179" target="faSnwYjg7DTad4G3PKVo-175">
          <mxGeometry relative="1" as="geometry" />
        </mxCell>
        <mxCell id="faSnwYjg7DTad4G3PKVo-179" value="содержит" style="rhombus;whiteSpace=wrap;html=1;rounded=0;fillColor=#b1ddf0;strokeColor=#10739e;" vertex="1" parent="1">
          <mxGeometry x="340" y="390" width="95" height="80" as="geometry" />
        </mxCell>
        <mxCell id="faSnwYjg7DTad4G3PKVo-180" value="" style="edgeStyle=orthogonalEdgeStyle;rounded=0;orthogonalLoop=1;jettySize=auto;html=1;endArrow=none;endFill=0;" edge="1" parent="1" source="faSnwYjg7DTad4G3PKVo-181" target="faSnwYjg7DTad4G3PKVo-173">
          <mxGeometry relative="1" as="geometry">
            <mxPoint x="163" y="710" as="targetPoint" />
          </mxGeometry>
        </mxCell>
        <mxCell id="faSnwYjg7DTad4G3PKVo-181" value="формирует" style="rhombus;whiteSpace=wrap;html=1;rounded=0;fillColor=#b1ddf0;strokeColor=#10739e;" vertex="1" parent="1">
          <mxGeometry x="175" y="790" width="95" height="80" as="geometry" />
        </mxCell>
        <mxCell id="faSnwYjg7DTad4G3PKVo-182" value="просматривает" style="rhombus;whiteSpace=wrap;html=1;rounded=0;fillColor=#b1ddf0;strokeColor=#10739e;" vertex="1" parent="1">
          <mxGeometry x="482.5" y="241" width="95" height="80" as="geometry" />
        </mxCell>
        <mxCell id="faSnwYjg7DTad4G3PKVo-183" value="&lt;font color=&quot;#000000&quot;&gt;1&lt;/font&gt;" style="text;html=1;strokeColor=none;fillColor=none;align=center;verticalAlign=middle;whiteSpace=wrap;rounded=0;fontSize=14;fontColor=#FF0000;" vertex="1" parent="1">
          <mxGeometry x="393.5" y="779" width="20" height="20" as="geometry" />
        </mxCell>
        <mxCell id="faSnwYjg7DTad4G3PKVo-184" value="&lt;font color=&quot;#000000&quot;&gt;M&lt;/font&gt;" style="text;html=1;strokeColor=none;fillColor=none;align=center;verticalAlign=middle;whiteSpace=wrap;rounded=0;fontSize=14;fontColor=#FF0000;" vertex="1" parent="1">
          <mxGeometry x="710.5" y="574" width="20" height="20" as="geometry" />
        </mxCell>
        <mxCell id="faSnwYjg7DTad4G3PKVo-185" value="" style="edgeStyle=orthogonalEdgeStyle;rounded=0;orthogonalLoop=1;jettySize=auto;html=1;endArrow=none;endFill=0;" edge="1" parent="1" source="faSnwYjg7DTad4G3PKVo-186" target="faSnwYjg7DTad4G3PKVo-142">
          <mxGeometry relative="1" as="geometry" />
        </mxCell>
        <mxCell id="faSnwYjg7DTad4G3PKVo-186" value="содержит" style="rhombus;whiteSpace=wrap;html=1;rounded=0;fillColor=#b1ddf0;strokeColor=#10739e;" vertex="1" parent="1">
          <mxGeometry x="538.5" y="500" width="95" height="80" as="geometry" />
        </mxCell>
        <mxCell id="faSnwYjg7DTad4G3PKVo-187" value="&lt;font color=&quot;#000000&quot;&gt;1&lt;/font&gt;" style="text;html=1;strokeColor=none;fillColor=none;align=center;verticalAlign=middle;whiteSpace=wrap;rounded=0;fontSize=14;fontColor=#FF0000;" vertex="1" parent="1">
          <mxGeometry x="284.5" y="407" width="20" height="20" as="geometry" />
        </mxCell>
        <mxCell id="faSnwYjg7DTad4G3PKVo-188" value="&lt;font color=&quot;#000000&quot;&gt;1&lt;/font&gt;" style="text;html=1;strokeColor=none;fillColor=none;align=center;verticalAlign=middle;whiteSpace=wrap;rounded=0;fontSize=14;fontColor=#FF0000;" vertex="1" parent="1">
          <mxGeometry x="225.5" y="461" width="20" height="20" as="geometry" />
        </mxCell>
        <mxCell id="faSnwYjg7DTad4G3PKVo-189" value="&lt;font color=&quot;#000000&quot;&gt;1&lt;/font&gt;" style="text;html=1;strokeColor=none;fillColor=none;align=center;verticalAlign=middle;whiteSpace=wrap;rounded=0;fontSize=14;fontColor=#FF0000;" vertex="1" parent="1">
          <mxGeometry x="308.5" y="809" width="20" height="20" as="geometry" />
        </mxCell>
        <mxCell id="faSnwYjg7DTad4G3PKVo-190" value="&lt;font color=&quot;#000000&quot;&gt;1&lt;/font&gt;" style="text;html=1;strokeColor=none;fillColor=none;align=center;verticalAlign=middle;whiteSpace=wrap;rounded=0;fontSize=14;fontColor=#FF0000;" vertex="1" parent="1">
          <mxGeometry x="140.5" y="434" width="20" height="20" as="geometry" />
        </mxCell>
        <mxCell id="faSnwYjg7DTad4G3PKVo-191" value="&lt;font color=&quot;#000000&quot;&gt;M&lt;/font&gt;" style="text;html=1;strokeColor=none;fillColor=none;align=center;verticalAlign=middle;whiteSpace=wrap;rounded=0;fontSize=14;fontColor=#FF0000;" vertex="1" parent="1">
          <mxGeometry x="62.5" y="527" width="20" height="20" as="geometry" />
        </mxCell>
        <mxCell id="faSnwYjg7DTad4G3PKVo-192" value="&lt;font color=&quot;#000000&quot;&gt;M&lt;/font&gt;" style="text;html=1;strokeColor=none;fillColor=none;align=center;verticalAlign=middle;whiteSpace=wrap;rounded=0;fontSize=14;fontColor=#FF0000;" vertex="1" parent="1">
          <mxGeometry x="391.5" y="488" width="20" height="20" as="geometry" />
        </mxCell>
        <mxCell id="faSnwYjg7DTad4G3PKVo-193" value="&lt;font color=&quot;#000000&quot;&gt;M&lt;/font&gt;" style="text;html=1;strokeColor=none;fillColor=none;align=center;verticalAlign=middle;whiteSpace=wrap;rounded=0;fontSize=14;fontColor=#FF0000;" vertex="1" parent="1">
          <mxGeometry x="452.5" y="518" width="20" height="20" as="geometry" />
        </mxCell>
        <mxCell id="faSnwYjg7DTad4G3PKVo-194" value="&lt;font color=&quot;#000000&quot;&gt;1&lt;/font&gt;" style="text;html=1;strokeColor=none;fillColor=none;align=center;verticalAlign=middle;whiteSpace=wrap;rounded=0;fontSize=14;fontColor=#FF0000;" vertex="1" parent="1">
          <mxGeometry x="223.5" y="377" width="20" height="20" as="geometry" />
        </mxCell>
        <mxCell id="faSnwYjg7DTad4G3PKVo-195" value="&lt;font color=&quot;#000000&quot;&gt;1&lt;/font&gt;" style="text;html=1;strokeColor=none;fillColor=none;align=center;verticalAlign=middle;whiteSpace=wrap;rounded=0;fontSize=14;fontColor=#FF0000;" vertex="1" parent="1">
          <mxGeometry x="684.5" y="518" width="20" height="20" as="geometry" />
        </mxCell>
      </root>
    </mxGraphModel>
  </diagram>
  <diagram name="Основная" id="Y7SHiGTtMIfjVJ--Y5m2">
    <mxGraphModel dx="1400" dy="839" grid="1" gridSize="10" guides="1" tooltips="1" connect="1" arrows="1" fold="1" page="1" pageScale="1" pageWidth="1169" pageHeight="827" math="0" shadow="0">
      <root>
        <mxCell id="_r1Es-19IkW4oCZ_9DLp-0" />
        <mxCell id="_r1Es-19IkW4oCZ_9DLp-1" parent="_r1Es-19IkW4oCZ_9DLp-0" />
        <mxCell id="_r1Es-19IkW4oCZ_9DLp-2" value="" style="edgeStyle=orthogonalEdgeStyle;rounded=0;orthogonalLoop=1;jettySize=auto;html=1;endArrow=none;endFill=0;" parent="_r1Es-19IkW4oCZ_9DLp-1" source="_r1Es-19IkW4oCZ_9DLp-37" target="_r1Es-19IkW4oCZ_9DLp-4" edge="1">
          <mxGeometry relative="1" as="geometry">
            <mxPoint x="1063.5" y="312" as="sourcePoint" />
            <mxPoint x="1043.5" y="332" as="targetPoint" />
          </mxGeometry>
        </mxCell>
        <mxCell id="_r1Es-19IkW4oCZ_9DLp-3" value="Номер" style="whiteSpace=wrap;html=1;rounded=0;fontStyle=1;fontSize=16;" parent="_r1Es-19IkW4oCZ_9DLp-1" vertex="1">
          <mxGeometry x="1396" y="213" width="120" height="60" as="geometry" />
        </mxCell>
        <mxCell id="_r1Es-19IkW4oCZ_9DLp-4" value="бронирует" style="rhombus;whiteSpace=wrap;html=1;rounded=0;fillColor=#b1ddf0;strokeColor=#10739e;" parent="_r1Es-19IkW4oCZ_9DLp-1" vertex="1">
          <mxGeometry x="858" y="202" width="95" height="80" as="geometry" />
        </mxCell>
        <mxCell id="_r1Es-19IkW4oCZ_9DLp-5" value="&lt;font color=&quot;#000000&quot;&gt;M&lt;/font&gt;" style="text;html=1;strokeColor=none;fillColor=none;align=center;verticalAlign=middle;whiteSpace=wrap;rounded=0;fontSize=14;fontColor=#FF0000;" parent="_r1Es-19IkW4oCZ_9DLp-1" vertex="1">
          <mxGeometry x="1007" y="220" width="20" height="20" as="geometry" />
        </mxCell>
        <mxCell id="_r1Es-19IkW4oCZ_9DLp-7" value="" style="edgeStyle=orthogonalEdgeStyle;rounded=0;orthogonalLoop=1;jettySize=auto;html=1;endArrow=none;endFill=0;" parent="_r1Es-19IkW4oCZ_9DLp-1" source="_r1Es-19IkW4oCZ_9DLp-9" target="_r1Es-19IkW4oCZ_9DLp-19" edge="1">
          <mxGeometry relative="1" as="geometry">
            <mxPoint x="828.5" y="32" as="sourcePoint" />
          </mxGeometry>
        </mxCell>
        <mxCell id="_r1Es-19IkW4oCZ_9DLp-8" value="" style="edgeStyle=orthogonalEdgeStyle;rounded=0;orthogonalLoop=1;jettySize=auto;html=1;endArrow=none;endFill=0;" parent="_r1Es-19IkW4oCZ_9DLp-1" source="_r1Es-19IkW4oCZ_9DLp-9" target="_r1Es-19IkW4oCZ_9DLp-4" edge="1">
          <mxGeometry relative="1" as="geometry">
            <mxPoint x="883.5" y="172.00263157894744" as="sourcePoint" />
            <mxPoint x="1013.5" y="361.95" as="targetPoint" />
          </mxGeometry>
        </mxCell>
        <mxCell id="DjqX_Z1rgbCPXDbNKhLw-5" value="" style="edgeStyle=orthogonalEdgeStyle;rounded=0;orthogonalLoop=1;jettySize=auto;html=1;endArrow=none;endFill=0;" parent="_r1Es-19IkW4oCZ_9DLp-1" source="_r1Es-19IkW4oCZ_9DLp-9" target="DjqX_Z1rgbCPXDbNKhLw-4" edge="1">
          <mxGeometry relative="1" as="geometry">
            <Array as="points">
              <mxPoint x="730" y="302" />
              <mxPoint x="730" y="302" />
            </Array>
          </mxGeometry>
        </mxCell>
        <mxCell id="_r1Es-19IkW4oCZ_9DLp-9" value="Гость" style="whiteSpace=wrap;html=1;rounded=0;fontStyle=1;fontSize=16;" parent="_r1Es-19IkW4oCZ_9DLp-1" vertex="1">
          <mxGeometry x="669.5" y="212" width="120" height="60" as="geometry" />
        </mxCell>
        <mxCell id="_r1Es-19IkW4oCZ_9DLp-11" value="" style="edgeStyle=orthogonalEdgeStyle;rounded=0;orthogonalLoop=1;jettySize=auto;html=1;endArrow=none;endFill=0;" parent="_r1Es-19IkW4oCZ_9DLp-1" source="_r1Es-19IkW4oCZ_9DLp-12" target="_r1Es-19IkW4oCZ_9DLp-50" edge="1">
          <mxGeometry relative="1" as="geometry">
            <mxPoint x="60" y="472" as="targetPoint" />
          </mxGeometry>
        </mxCell>
        <mxCell id="_r1Es-19IkW4oCZ_9DLp-12" value="Услуга" style="whiteSpace=wrap;html=1;rounded=0;fontStyle=1;fontSize=16;" parent="_r1Es-19IkW4oCZ_9DLp-1" vertex="1">
          <mxGeometry x="327.5" y="752" width="120" height="60" as="geometry" />
        </mxCell>
        <mxCell id="_r1Es-19IkW4oCZ_9DLp-13" value="Заказ" style="whiteSpace=wrap;html=1;rounded=0;fontStyle=1;fontSize=16;" parent="_r1Es-19IkW4oCZ_9DLp-1" vertex="1">
          <mxGeometry x="670.5" y="468" width="120" height="60" as="geometry" />
        </mxCell>
        <mxCell id="_r1Es-19IkW4oCZ_9DLp-14" value="обрабатывает" style="rhombus;whiteSpace=wrap;html=1;rounded=0;fillColor=#b1ddf0;strokeColor=#10739e;" parent="_r1Es-19IkW4oCZ_9DLp-1" vertex="1">
          <mxGeometry x="858" y="458" width="95" height="80" as="geometry" />
        </mxCell>
        <mxCell id="_r1Es-19IkW4oCZ_9DLp-16" value="Сотрудник" style="whiteSpace=wrap;html=1;rounded=0;fontStyle=1;fontSize=16;" parent="_r1Es-19IkW4oCZ_9DLp-1" vertex="1">
          <mxGeometry x="1027" y="468" width="120" height="60" as="geometry" />
        </mxCell>
        <mxCell id="_r1Es-19IkW4oCZ_9DLp-17" value="получает" style="rhombus;whiteSpace=wrap;html=1;rounded=0;fillColor=#b1ddf0;strokeColor=#10739e;" parent="_r1Es-19IkW4oCZ_9DLp-1" vertex="1">
          <mxGeometry x="1040.5" y="620" width="95" height="80" as="geometry" />
        </mxCell>
        <mxCell id="_r1Es-19IkW4oCZ_9DLp-18" value="" style="edgeStyle=orthogonalEdgeStyle;rounded=0;orthogonalLoop=1;jettySize=auto;html=1;endArrow=none;endFill=0;" parent="_r1Es-19IkW4oCZ_9DLp-1" source="_r1Es-19IkW4oCZ_9DLp-19" target="_r1Es-19IkW4oCZ_9DLp-20" edge="1">
          <mxGeometry relative="1" as="geometry" />
        </mxCell>
        <mxCell id="_r1Es-19IkW4oCZ_9DLp-19" value="оставляет" style="rhombus;whiteSpace=wrap;html=1;rounded=0;fillColor=#b1ddf0;strokeColor=#10739e;" parent="_r1Es-19IkW4oCZ_9DLp-1" vertex="1">
          <mxGeometry x="520" y="202" width="95" height="80" as="geometry" />
        </mxCell>
        <mxCell id="_r1Es-19IkW4oCZ_9DLp-20" value="Отзыв" style="whiteSpace=wrap;html=1;rounded=0;fontStyle=1;fontSize=16;" parent="_r1Es-19IkW4oCZ_9DLp-1" vertex="1">
          <mxGeometry x="327.5" y="212" width="120" height="60" as="geometry" />
        </mxCell>
        <mxCell id="_r1Es-19IkW4oCZ_9DLp-21" value="" style="endArrow=none;html=1;rounded=0;" parent="_r1Es-19IkW4oCZ_9DLp-1" source="_r1Es-19IkW4oCZ_9DLp-13" target="_r1Es-19IkW4oCZ_9DLp-14" edge="1">
          <mxGeometry width="50" height="50" relative="1" as="geometry">
            <mxPoint x="701.5" y="629.9969230769229" as="sourcePoint" />
            <mxPoint x="386.49999999999955" y="768.9200000000004" as="targetPoint" />
          </mxGeometry>
        </mxCell>
        <mxCell id="_r1Es-19IkW4oCZ_9DLp-22" value="" style="endArrow=none;html=1;rounded=0;" parent="_r1Es-19IkW4oCZ_9DLp-1" source="_r1Es-19IkW4oCZ_9DLp-14" target="_r1Es-19IkW4oCZ_9DLp-16" edge="1">
          <mxGeometry width="50" height="50" relative="1" as="geometry">
            <mxPoint x="922" y="550" as="sourcePoint" />
            <mxPoint x="1014" y="550" as="targetPoint" />
          </mxGeometry>
        </mxCell>
        <mxCell id="_r1Es-19IkW4oCZ_9DLp-23" value="" style="endArrow=none;html=1;rounded=0;" parent="_r1Es-19IkW4oCZ_9DLp-1" source="_r1Es-19IkW4oCZ_9DLp-16" target="_r1Es-19IkW4oCZ_9DLp-17" edge="1">
          <mxGeometry width="50" height="50" relative="1" as="geometry">
            <mxPoint x="933.5" y="550" as="sourcePoint" />
            <mxPoint x="1016.5" y="550" as="targetPoint" />
          </mxGeometry>
        </mxCell>
        <mxCell id="_r1Es-19IkW4oCZ_9DLp-24" value="" style="endArrow=none;html=1;rounded=0;edgeStyle=orthogonalEdgeStyle;" parent="_r1Es-19IkW4oCZ_9DLp-1" source="_r1Es-19IkW4oCZ_9DLp-17" target="_r1Es-19IkW4oCZ_9DLp-30" edge="1">
          <mxGeometry width="50" height="50" relative="1" as="geometry">
            <mxPoint x="994" y="740" as="sourcePoint" />
            <mxPoint x="1087" y="770" as="targetPoint" />
          </mxGeometry>
        </mxCell>
        <mxCell id="_r1Es-19IkW4oCZ_9DLp-26" value="&lt;font color=&quot;#000000&quot;&gt;1&lt;/font&gt;" style="text;html=1;strokeColor=none;fillColor=none;align=center;verticalAlign=middle;whiteSpace=wrap;rounded=0;fontSize=14;fontColor=#FF0000;" parent="_r1Es-19IkW4oCZ_9DLp-1" vertex="1">
          <mxGeometry x="792" y="221" width="20" height="20" as="geometry" />
        </mxCell>
        <mxCell id="_r1Es-19IkW4oCZ_9DLp-27" value="&lt;font color=&quot;#000000&quot;&gt;1&lt;/font&gt;" style="text;html=1;strokeColor=none;fillColor=none;align=center;verticalAlign=middle;whiteSpace=wrap;rounded=0;fontSize=14;fontColor=#FF0000;" parent="_r1Es-19IkW4oCZ_9DLp-1" vertex="1">
          <mxGeometry x="647" y="220" width="20" height="20" as="geometry" />
        </mxCell>
        <mxCell id="_r1Es-19IkW4oCZ_9DLp-28" value="&lt;font color=&quot;#000000&quot;&gt;1&lt;/font&gt;" style="text;html=1;strokeColor=none;fillColor=none;align=center;verticalAlign=middle;whiteSpace=wrap;rounded=0;fontSize=14;fontColor=#FF0000;" parent="_r1Es-19IkW4oCZ_9DLp-1" vertex="1">
          <mxGeometry x="1005" y="476" width="20" height="20" as="geometry" />
        </mxCell>
        <mxCell id="_r1Es-19IkW4oCZ_9DLp-29" value="содержит" style="rhombus;whiteSpace=wrap;html=1;rounded=0;fillColor=#b1ddf0;strokeColor=#10739e;" parent="_r1Es-19IkW4oCZ_9DLp-1" vertex="1">
          <mxGeometry x="683" y="620" width="95" height="80" as="geometry" />
        </mxCell>
        <mxCell id="_r1Es-19IkW4oCZ_9DLp-30" value="Уведомления" style="whiteSpace=wrap;html=1;rounded=0;fontStyle=1;fontSize=16;" parent="_r1Es-19IkW4oCZ_9DLp-1" vertex="1">
          <mxGeometry x="845.5" y="630" width="120" height="60" as="geometry" />
        </mxCell>
        <mxCell id="_r1Es-19IkW4oCZ_9DLp-31" value="" style="endArrow=none;html=1;rounded=0;" parent="_r1Es-19IkW4oCZ_9DLp-1" source="_r1Es-19IkW4oCZ_9DLp-13" target="_r1Es-19IkW4oCZ_9DLp-29" edge="1">
          <mxGeometry width="50" height="50" relative="1" as="geometry">
            <mxPoint x="731.5" y="570" as="sourcePoint" />
            <mxPoint x="681.5" y="550" as="targetPoint" />
          </mxGeometry>
        </mxCell>
        <mxCell id="_r1Es-19IkW4oCZ_9DLp-32" value="" style="endArrow=none;html=1;rounded=0;" parent="_r1Es-19IkW4oCZ_9DLp-1" source="_r1Es-19IkW4oCZ_9DLp-29" target="_r1Es-19IkW4oCZ_9DLp-30" edge="1">
          <mxGeometry width="50" height="50" relative="1" as="geometry">
            <mxPoint x="638.5" y="740" as="sourcePoint" />
            <mxPoint x="721.5" y="740" as="targetPoint" />
          </mxGeometry>
        </mxCell>
        <mxCell id="_r1Es-19IkW4oCZ_9DLp-33" value="&lt;font color=&quot;#000000&quot;&gt;1&lt;/font&gt;" style="text;html=1;strokeColor=none;fillColor=none;align=center;verticalAlign=middle;whiteSpace=wrap;rounded=0;fontSize=14;fontColor=#FF0000;" parent="_r1Es-19IkW4oCZ_9DLp-1" vertex="1">
          <mxGeometry x="732.5" y="528" width="20" height="20" as="geometry" />
        </mxCell>
        <mxCell id="_r1Es-19IkW4oCZ_9DLp-34" value="&lt;font color=&quot;#000000&quot;&gt;M&lt;/font&gt;" style="text;html=1;strokeColor=none;fillColor=none;align=center;verticalAlign=middle;whiteSpace=wrap;rounded=0;fontSize=14;fontColor=#FF0000;" parent="_r1Es-19IkW4oCZ_9DLp-1" vertex="1">
          <mxGeometry x="449.5" y="221" width="20" height="20" as="geometry" />
        </mxCell>
        <mxCell id="_r1Es-19IkW4oCZ_9DLp-35" value="&lt;font color=&quot;#000000&quot;&gt;M&lt;/font&gt;" style="text;html=1;strokeColor=none;fillColor=none;align=center;verticalAlign=middle;whiteSpace=wrap;rounded=0;fontSize=14;fontColor=#FF0000;" parent="_r1Es-19IkW4oCZ_9DLp-1" vertex="1">
          <mxGeometry x="966" y="640" width="20" height="20" as="geometry" />
        </mxCell>
        <mxCell id="_r1Es-19IkW4oCZ_9DLp-36" value="&lt;font color=&quot;#000000&quot;&gt;M&lt;/font&gt;" style="text;html=1;strokeColor=none;fillColor=none;align=center;verticalAlign=middle;whiteSpace=wrap;rounded=0;fontSize=14;fontColor=#FF0000;" parent="_r1Es-19IkW4oCZ_9DLp-1" vertex="1">
          <mxGeometry x="731" y="447" width="20" height="20" as="geometry" />
        </mxCell>
        <mxCell id="_r1Es-19IkW4oCZ_9DLp-37" value="Бронь" style="whiteSpace=wrap;html=1;rounded=0;fontStyle=1;fontSize=16;" parent="_r1Es-19IkW4oCZ_9DLp-1" vertex="1">
          <mxGeometry x="1028" y="212" width="120" height="60" as="geometry" />
        </mxCell>
        <mxCell id="_r1Es-19IkW4oCZ_9DLp-38" value="" style="edgeStyle=orthogonalEdgeStyle;rounded=0;orthogonalLoop=1;jettySize=auto;html=1;endArrow=none;endFill=0;" parent="_r1Es-19IkW4oCZ_9DLp-1" source="_r1Es-19IkW4oCZ_9DLp-40" target="_r1Es-19IkW4oCZ_9DLp-3" edge="1">
          <mxGeometry relative="1" as="geometry">
            <mxPoint x="1378.5" y="132" as="targetPoint" />
          </mxGeometry>
        </mxCell>
        <mxCell id="_r1Es-19IkW4oCZ_9DLp-39" value="" style="edgeStyle=orthogonalEdgeStyle;rounded=0;orthogonalLoop=1;jettySize=auto;html=1;endArrow=none;endFill=0;" parent="_r1Es-19IkW4oCZ_9DLp-1" source="_r1Es-19IkW4oCZ_9DLp-40" target="_r1Es-19IkW4oCZ_9DLp-37" edge="1">
          <mxGeometry relative="1" as="geometry">
            <mxPoint x="1138.5" y="132" as="targetPoint" />
          </mxGeometry>
        </mxCell>
        <mxCell id="_r1Es-19IkW4oCZ_9DLp-40" value="бронирует" style="rhombus;whiteSpace=wrap;html=1;rounded=0;fillColor=#b1ddf0;strokeColor=#10739e;" parent="_r1Es-19IkW4oCZ_9DLp-1" vertex="1">
          <mxGeometry x="1227" y="202" width="95" height="80" as="geometry" />
        </mxCell>
        <mxCell id="_r1Es-19IkW4oCZ_9DLp-41" value="&lt;font color=&quot;#000000&quot;&gt;1&lt;/font&gt;" style="text;html=1;strokeColor=none;fillColor=none;align=center;verticalAlign=middle;whiteSpace=wrap;rounded=0;fontSize=14;fontColor=#FF0000;" parent="_r1Es-19IkW4oCZ_9DLp-1" vertex="1">
          <mxGeometry x="1375" y="222" width="20" height="20" as="geometry" />
        </mxCell>
        <mxCell id="_r1Es-19IkW4oCZ_9DLp-42" value="&lt;font color=&quot;#000000&quot;&gt;M&lt;/font&gt;" style="text;html=1;strokeColor=none;fillColor=none;align=center;verticalAlign=middle;whiteSpace=wrap;rounded=0;fontSize=14;fontColor=#FF0000;" parent="_r1Es-19IkW4oCZ_9DLp-1" vertex="1">
          <mxGeometry x="1149.5" y="222" width="20" height="20" as="geometry" />
        </mxCell>
        <mxCell id="_r1Es-19IkW4oCZ_9DLp-45" value="" style="edgeStyle=orthogonalEdgeStyle;rounded=0;orthogonalLoop=1;jettySize=auto;html=1;endArrow=none;endFill=0;" parent="_r1Es-19IkW4oCZ_9DLp-1" source="_r1Es-19IkW4oCZ_9DLp-46" target="_r1Es-19IkW4oCZ_9DLp-57" edge="1">
          <mxGeometry relative="1" as="geometry">
            <mxPoint x="517.5" y="400" as="targetPoint" />
          </mxGeometry>
        </mxCell>
        <mxCell id="_r1Es-19IkW4oCZ_9DLp-46" value="Услуга в заказе" style="whiteSpace=wrap;html=1;rounded=0;fontStyle=1;fontSize=16;" parent="_r1Es-19IkW4oCZ_9DLp-1" vertex="1">
          <mxGeometry x="322.5" y="469" width="130" height="60" as="geometry" />
        </mxCell>
        <mxCell id="_r1Es-19IkW4oCZ_9DLp-49" value="" style="edgeStyle=orthogonalEdgeStyle;rounded=0;orthogonalLoop=1;jettySize=auto;html=1;endArrow=none;endFill=0;" parent="_r1Es-19IkW4oCZ_9DLp-1" source="_r1Es-19IkW4oCZ_9DLp-50" target="_r1Es-19IkW4oCZ_9DLp-46" edge="1">
          <mxGeometry relative="1" as="geometry" />
        </mxCell>
        <mxCell id="_r1Es-19IkW4oCZ_9DLp-50" value="содержит" style="rhombus;whiteSpace=wrap;html=1;rounded=0;fillColor=#b1ddf0;strokeColor=#10739e;" parent="_r1Es-19IkW4oCZ_9DLp-1" vertex="1">
          <mxGeometry x="340" y="620" width="95" height="80" as="geometry" />
        </mxCell>
        <mxCell id="_r1Es-19IkW4oCZ_9DLp-54" value="&lt;font color=&quot;#000000&quot;&gt;1&lt;/font&gt;" style="text;html=1;strokeColor=none;fillColor=none;align=center;verticalAlign=middle;whiteSpace=wrap;rounded=0;fontSize=14;fontColor=#FF0000;" parent="_r1Es-19IkW4oCZ_9DLp-1" vertex="1">
          <mxGeometry x="1067" y="530" width="20" height="20" as="geometry" />
        </mxCell>
        <mxCell id="_r1Es-19IkW4oCZ_9DLp-55" value="&lt;font color=&quot;#000000&quot;&gt;M&lt;/font&gt;" style="text;html=1;strokeColor=none;fillColor=none;align=center;verticalAlign=middle;whiteSpace=wrap;rounded=0;fontSize=14;fontColor=#FF0000;" parent="_r1Es-19IkW4oCZ_9DLp-1" vertex="1">
          <mxGeometry x="825.5" y="640" width="20" height="20" as="geometry" />
        </mxCell>
        <mxCell id="_r1Es-19IkW4oCZ_9DLp-56" value="" style="edgeStyle=orthogonalEdgeStyle;rounded=0;orthogonalLoop=1;jettySize=auto;html=1;endArrow=none;endFill=0;" parent="_r1Es-19IkW4oCZ_9DLp-1" source="_r1Es-19IkW4oCZ_9DLp-57" target="_r1Es-19IkW4oCZ_9DLp-13" edge="1">
          <mxGeometry relative="1" as="geometry">
            <mxPoint x="597.5" y="540" as="sourcePoint" />
          </mxGeometry>
        </mxCell>
        <mxCell id="_r1Es-19IkW4oCZ_9DLp-57" value="содержит" style="rhombus;whiteSpace=wrap;html=1;rounded=0;fillColor=#b1ddf0;strokeColor=#10739e;" parent="_r1Es-19IkW4oCZ_9DLp-1" vertex="1">
          <mxGeometry x="520" y="458" width="95" height="80" as="geometry" />
        </mxCell>
        <mxCell id="_r1Es-19IkW4oCZ_9DLp-58" value="&lt;font color=&quot;#000000&quot;&gt;1&lt;/font&gt;" style="text;html=1;strokeColor=none;fillColor=none;align=center;verticalAlign=middle;whiteSpace=wrap;rounded=0;fontSize=14;fontColor=#FF0000;" parent="_r1Es-19IkW4oCZ_9DLp-1" vertex="1">
          <mxGeometry x="388" y="728" width="20" height="20" as="geometry" />
        </mxCell>
        <mxCell id="_r1Es-19IkW4oCZ_9DLp-63" value="&lt;font color=&quot;#000000&quot;&gt;M&lt;/font&gt;" style="text;html=1;strokeColor=none;fillColor=none;align=center;verticalAlign=middle;whiteSpace=wrap;rounded=0;fontSize=14;fontColor=#FF0000;" parent="_r1Es-19IkW4oCZ_9DLp-1" vertex="1">
          <mxGeometry x="389" y="531" width="20" height="20" as="geometry" />
        </mxCell>
        <mxCell id="_r1Es-19IkW4oCZ_9DLp-64" value="&lt;font color=&quot;#000000&quot;&gt;M&lt;/font&gt;" style="text;html=1;strokeColor=none;fillColor=none;align=center;verticalAlign=middle;whiteSpace=wrap;rounded=0;fontSize=14;fontColor=#FF0000;" parent="_r1Es-19IkW4oCZ_9DLp-1" vertex="1">
          <mxGeometry x="452.5" y="477" width="20" height="20" as="geometry" />
        </mxCell>
        <mxCell id="_r1Es-19IkW4oCZ_9DLp-66" value="&lt;font color=&quot;#000000&quot;&gt;1&lt;/font&gt;" style="text;html=1;strokeColor=none;fillColor=none;align=center;verticalAlign=middle;whiteSpace=wrap;rounded=0;fontSize=14;fontColor=#FF0000;" parent="_r1Es-19IkW4oCZ_9DLp-1" vertex="1">
          <mxGeometry x="648.5" y="477" width="20" height="20" as="geometry" />
        </mxCell>
        <mxCell id="DjqX_Z1rgbCPXDbNKhLw-6" value="" style="edgeStyle=orthogonalEdgeStyle;rounded=0;orthogonalLoop=1;jettySize=auto;html=1;endArrow=none;endFill=0;" parent="_r1Es-19IkW4oCZ_9DLp-1" source="DjqX_Z1rgbCPXDbNKhLw-4" target="_r1Es-19IkW4oCZ_9DLp-13" edge="1">
          <mxGeometry relative="1" as="geometry">
            <Array as="points">
              <mxPoint x="729" y="500" />
              <mxPoint x="729" y="500" />
            </Array>
          </mxGeometry>
        </mxCell>
        <mxCell id="DjqX_Z1rgbCPXDbNKhLw-4" value="создает" style="rhombus;whiteSpace=wrap;html=1;rounded=0;fillColor=#b1ddf0;strokeColor=#10739e;" parent="_r1Es-19IkW4oCZ_9DLp-1" vertex="1">
          <mxGeometry x="682" y="332" width="95" height="80" as="geometry" />
        </mxCell>
        <mxCell id="DjqX_Z1rgbCPXDbNKhLw-7" value="&lt;font color=&quot;#000000&quot;&gt;1&lt;/font&gt;" style="text;html=1;strokeColor=none;fillColor=none;align=center;verticalAlign=middle;whiteSpace=wrap;rounded=0;fontSize=14;fontColor=#FF0000;" parent="_r1Es-19IkW4oCZ_9DLp-1" vertex="1">
          <mxGeometry x="732" y="276" width="20" height="20" as="geometry" />
        </mxCell>
        <mxCell id="DjqX_Z1rgbCPXDbNKhLw-8" value="&lt;font color=&quot;#000000&quot;&gt;M&lt;/font&gt;" style="text;html=1;strokeColor=none;fillColor=none;align=center;verticalAlign=middle;whiteSpace=wrap;rounded=0;fontSize=14;fontColor=#FF0000;" parent="_r1Es-19IkW4oCZ_9DLp-1" vertex="1">
          <mxGeometry x="790" y="476" width="20" height="20" as="geometry" />
        </mxCell>
      </root>
    </mxGraphModel>
  </diagram>
  <diagram id="MAkNXu1n6-1iLCN0FvVa" name="+Админ">
    <mxGraphModel dx="2333" dy="1398" grid="1" gridSize="10" guides="1" tooltips="1" connect="1" arrows="1" fold="1" page="1" pageScale="1" pageWidth="1169" pageHeight="827" math="0" shadow="0">
      <root>
        <mxCell id="0" />
        <mxCell id="1" parent="0" />
        <mxCell id="XtLdloDyXn-TPDpZmK61-1" value="" style="edgeStyle=orthogonalEdgeStyle;rounded=0;orthogonalLoop=1;jettySize=auto;html=1;endArrow=none;endFill=0;" edge="1" parent="1" source="XtLdloDyXn-TPDpZmK61-33" target="XtLdloDyXn-TPDpZmK61-3">
          <mxGeometry relative="1" as="geometry">
            <mxPoint x="771" y="230" as="sourcePoint" />
            <mxPoint x="751" y="250" as="targetPoint" />
          </mxGeometry>
        </mxCell>
        <mxCell id="XtLdloDyXn-TPDpZmK61-2" value="Номер" style="whiteSpace=wrap;html=1;rounded=0;fontStyle=1;fontSize=16;" vertex="1" parent="1">
          <mxGeometry x="1103.5" y="131" width="120" height="60" as="geometry" />
        </mxCell>
        <mxCell id="XtLdloDyXn-TPDpZmK61-3" value="бронирует" style="rhombus;whiteSpace=wrap;html=1;rounded=0;fillColor=#b1ddf0;strokeColor=#10739e;" vertex="1" parent="1">
          <mxGeometry x="565.5" y="120" width="95" height="80" as="geometry" />
        </mxCell>
        <mxCell id="XtLdloDyXn-TPDpZmK61-4" value="&lt;font color=&quot;#000000&quot;&gt;M&lt;/font&gt;" style="text;html=1;strokeColor=none;fillColor=none;align=center;verticalAlign=middle;whiteSpace=wrap;rounded=0;fontSize=14;fontColor=#FF0000;" vertex="1" parent="1">
          <mxGeometry x="714.5" y="138" width="20" height="20" as="geometry" />
        </mxCell>
        <mxCell id="XtLdloDyXn-TPDpZmK61-5" value="" style="edgeStyle=orthogonalEdgeStyle;rounded=0;orthogonalLoop=1;jettySize=auto;html=1;endArrow=none;endFill=0;" edge="1" parent="1" source="XtLdloDyXn-TPDpZmK61-8" target="XtLdloDyXn-TPDpZmK61-16">
          <mxGeometry relative="1" as="geometry">
            <mxPoint x="536" y="-50" as="sourcePoint" />
          </mxGeometry>
        </mxCell>
        <mxCell id="XtLdloDyXn-TPDpZmK61-6" value="" style="edgeStyle=orthogonalEdgeStyle;rounded=0;orthogonalLoop=1;jettySize=auto;html=1;endArrow=none;endFill=0;" edge="1" parent="1" source="XtLdloDyXn-TPDpZmK61-8" target="XtLdloDyXn-TPDpZmK61-3">
          <mxGeometry relative="1" as="geometry">
            <mxPoint x="591" y="90.00263157894744" as="sourcePoint" />
            <mxPoint x="721" y="279.95" as="targetPoint" />
          </mxGeometry>
        </mxCell>
        <mxCell id="XtLdloDyXn-TPDpZmK61-7" value="" style="edgeStyle=orthogonalEdgeStyle;rounded=0;orthogonalLoop=1;jettySize=auto;html=1;endArrow=none;endFill=0;" edge="1" parent="1" source="XtLdloDyXn-TPDpZmK61-8" target="XtLdloDyXn-TPDpZmK61-52">
          <mxGeometry relative="1" as="geometry">
            <Array as="points">
              <mxPoint x="437.5" y="220" />
              <mxPoint x="437.5" y="220" />
            </Array>
          </mxGeometry>
        </mxCell>
        <mxCell id="XtLdloDyXn-TPDpZmK61-8" value="Гость" style="whiteSpace=wrap;html=1;rounded=0;fontStyle=1;fontSize=16;" vertex="1" parent="1">
          <mxGeometry x="377" y="130" width="120" height="60" as="geometry" />
        </mxCell>
        <mxCell id="XtLdloDyXn-TPDpZmK61-9" value="" style="edgeStyle=orthogonalEdgeStyle;rounded=0;orthogonalLoop=1;jettySize=auto;html=1;endArrow=none;endFill=0;" edge="1" parent="1" source="XtLdloDyXn-TPDpZmK61-10" target="XtLdloDyXn-TPDpZmK61-42">
          <mxGeometry relative="1" as="geometry">
            <mxPoint x="-232.5" y="390" as="targetPoint" />
          </mxGeometry>
        </mxCell>
        <mxCell id="XtLdloDyXn-TPDpZmK61-10" value="Услуга" style="whiteSpace=wrap;html=1;rounded=0;fontStyle=1;fontSize=16;" vertex="1" parent="1">
          <mxGeometry x="35" y="670" width="120" height="60" as="geometry" />
        </mxCell>
        <mxCell id="XtLdloDyXn-TPDpZmK61-11" value="Заказ" style="whiteSpace=wrap;html=1;rounded=0;fontStyle=1;fontSize=16;" vertex="1" parent="1">
          <mxGeometry x="378" y="386" width="120" height="60" as="geometry" />
        </mxCell>
        <mxCell id="XtLdloDyXn-TPDpZmK61-12" value="обрабатывает" style="rhombus;whiteSpace=wrap;html=1;rounded=0;fillColor=#b1ddf0;strokeColor=#10739e;" vertex="1" parent="1">
          <mxGeometry x="565.5" y="376" width="95" height="80" as="geometry" />
        </mxCell>
        <mxCell id="XtLdloDyXn-TPDpZmK61-13" value="Сотрудник" style="whiteSpace=wrap;html=1;rounded=0;fontStyle=1;fontSize=16;" vertex="1" parent="1">
          <mxGeometry x="734.5" y="386" width="120" height="60" as="geometry" />
        </mxCell>
        <mxCell id="XtLdloDyXn-TPDpZmK61-14" value="получает" style="rhombus;whiteSpace=wrap;html=1;rounded=0;fillColor=#b1ddf0;strokeColor=#10739e;" vertex="1" parent="1">
          <mxGeometry x="748" y="538" width="95" height="80" as="geometry" />
        </mxCell>
        <mxCell id="XtLdloDyXn-TPDpZmK61-15" value="" style="edgeStyle=orthogonalEdgeStyle;rounded=0;orthogonalLoop=1;jettySize=auto;html=1;endArrow=none;endFill=0;" edge="1" parent="1" source="XtLdloDyXn-TPDpZmK61-16" target="XtLdloDyXn-TPDpZmK61-17">
          <mxGeometry relative="1" as="geometry" />
        </mxCell>
        <mxCell id="XtLdloDyXn-TPDpZmK61-16" value="оставляет" style="rhombus;whiteSpace=wrap;html=1;rounded=0;fillColor=#b1ddf0;strokeColor=#10739e;" vertex="1" parent="1">
          <mxGeometry x="227.5" y="120" width="95" height="80" as="geometry" />
        </mxCell>
        <mxCell id="XtLdloDyXn-TPDpZmK61-17" value="Отзыв" style="whiteSpace=wrap;html=1;rounded=0;fontStyle=1;fontSize=16;" vertex="1" parent="1">
          <mxGeometry x="35" y="130" width="120" height="60" as="geometry" />
        </mxCell>
        <mxCell id="XtLdloDyXn-TPDpZmK61-18" value="" style="endArrow=none;html=1;rounded=0;" edge="1" parent="1" source="XtLdloDyXn-TPDpZmK61-11" target="XtLdloDyXn-TPDpZmK61-12">
          <mxGeometry width="50" height="50" relative="1" as="geometry">
            <mxPoint x="409" y="547.9969230769229" as="sourcePoint" />
            <mxPoint x="93.99999999999955" y="686.9200000000004" as="targetPoint" />
          </mxGeometry>
        </mxCell>
        <mxCell id="XtLdloDyXn-TPDpZmK61-19" value="" style="endArrow=none;html=1;rounded=0;" edge="1" parent="1" source="XtLdloDyXn-TPDpZmK61-12" target="XtLdloDyXn-TPDpZmK61-13">
          <mxGeometry width="50" height="50" relative="1" as="geometry">
            <mxPoint x="629.5" y="468" as="sourcePoint" />
            <mxPoint x="721.5" y="468" as="targetPoint" />
          </mxGeometry>
        </mxCell>
        <mxCell id="XtLdloDyXn-TPDpZmK61-20" value="" style="endArrow=none;html=1;rounded=0;" edge="1" parent="1" source="XtLdloDyXn-TPDpZmK61-13" target="XtLdloDyXn-TPDpZmK61-14">
          <mxGeometry width="50" height="50" relative="1" as="geometry">
            <mxPoint x="641" y="468" as="sourcePoint" />
            <mxPoint x="724" y="468" as="targetPoint" />
          </mxGeometry>
        </mxCell>
        <mxCell id="XtLdloDyXn-TPDpZmK61-21" value="" style="endArrow=none;html=1;rounded=0;edgeStyle=orthogonalEdgeStyle;" edge="1" parent="1" source="XtLdloDyXn-TPDpZmK61-14" target="XtLdloDyXn-TPDpZmK61-26">
          <mxGeometry width="50" height="50" relative="1" as="geometry">
            <mxPoint x="701.5" y="658" as="sourcePoint" />
            <mxPoint x="794.5" y="688" as="targetPoint" />
          </mxGeometry>
        </mxCell>
        <mxCell id="XtLdloDyXn-TPDpZmK61-22" value="&lt;font color=&quot;#000000&quot;&gt;1&lt;/font&gt;" style="text;html=1;strokeColor=none;fillColor=none;align=center;verticalAlign=middle;whiteSpace=wrap;rounded=0;fontSize=14;fontColor=#FF0000;" vertex="1" parent="1">
          <mxGeometry x="499.5" y="139" width="20" height="20" as="geometry" />
        </mxCell>
        <mxCell id="XtLdloDyXn-TPDpZmK61-23" value="&lt;font color=&quot;#000000&quot;&gt;1&lt;/font&gt;" style="text;html=1;strokeColor=none;fillColor=none;align=center;verticalAlign=middle;whiteSpace=wrap;rounded=0;fontSize=14;fontColor=#FF0000;" vertex="1" parent="1">
          <mxGeometry x="354.5" y="138" width="20" height="20" as="geometry" />
        </mxCell>
        <mxCell id="XtLdloDyXn-TPDpZmK61-24" value="&lt;font color=&quot;#000000&quot;&gt;1&lt;/font&gt;" style="text;html=1;strokeColor=none;fillColor=none;align=center;verticalAlign=middle;whiteSpace=wrap;rounded=0;fontSize=14;fontColor=#FF0000;" vertex="1" parent="1">
          <mxGeometry x="712.5" y="394" width="20" height="20" as="geometry" />
        </mxCell>
        <mxCell id="XtLdloDyXn-TPDpZmK61-25" value="содержит" style="rhombus;whiteSpace=wrap;html=1;rounded=0;fillColor=#b1ddf0;strokeColor=#10739e;" vertex="1" parent="1">
          <mxGeometry x="390.5" y="538" width="95" height="80" as="geometry" />
        </mxCell>
        <mxCell id="XtLdloDyXn-TPDpZmK61-26" value="Уведомления" style="whiteSpace=wrap;html=1;rounded=0;fontStyle=1;fontSize=16;" vertex="1" parent="1">
          <mxGeometry x="553" y="548" width="120" height="60" as="geometry" />
        </mxCell>
        <mxCell id="XtLdloDyXn-TPDpZmK61-27" value="" style="endArrow=none;html=1;rounded=0;" edge="1" parent="1" source="XtLdloDyXn-TPDpZmK61-11" target="XtLdloDyXn-TPDpZmK61-25">
          <mxGeometry width="50" height="50" relative="1" as="geometry">
            <mxPoint x="439" y="488" as="sourcePoint" />
            <mxPoint x="389" y="468" as="targetPoint" />
          </mxGeometry>
        </mxCell>
        <mxCell id="XtLdloDyXn-TPDpZmK61-28" value="" style="endArrow=none;html=1;rounded=0;" edge="1" parent="1" source="XtLdloDyXn-TPDpZmK61-25" target="XtLdloDyXn-TPDpZmK61-26">
          <mxGeometry width="50" height="50" relative="1" as="geometry">
            <mxPoint x="346" y="658" as="sourcePoint" />
            <mxPoint x="429" y="658" as="targetPoint" />
          </mxGeometry>
        </mxCell>
        <mxCell id="XtLdloDyXn-TPDpZmK61-29" value="&lt;font color=&quot;#000000&quot;&gt;1&lt;/font&gt;" style="text;html=1;strokeColor=none;fillColor=none;align=center;verticalAlign=middle;whiteSpace=wrap;rounded=0;fontSize=14;fontColor=#FF0000;" vertex="1" parent="1">
          <mxGeometry x="440" y="446" width="20" height="20" as="geometry" />
        </mxCell>
        <mxCell id="XtLdloDyXn-TPDpZmK61-30" value="&lt;font color=&quot;#000000&quot;&gt;M&lt;/font&gt;" style="text;html=1;strokeColor=none;fillColor=none;align=center;verticalAlign=middle;whiteSpace=wrap;rounded=0;fontSize=14;fontColor=#FF0000;" vertex="1" parent="1">
          <mxGeometry x="157" y="139" width="20" height="20" as="geometry" />
        </mxCell>
        <mxCell id="XtLdloDyXn-TPDpZmK61-31" value="&lt;font color=&quot;#000000&quot;&gt;M&lt;/font&gt;" style="text;html=1;strokeColor=none;fillColor=none;align=center;verticalAlign=middle;whiteSpace=wrap;rounded=0;fontSize=14;fontColor=#FF0000;" vertex="1" parent="1">
          <mxGeometry x="673.5" y="558" width="20" height="20" as="geometry" />
        </mxCell>
        <mxCell id="XtLdloDyXn-TPDpZmK61-32" value="&lt;font color=&quot;#000000&quot;&gt;M&lt;/font&gt;" style="text;html=1;strokeColor=none;fillColor=none;align=center;verticalAlign=middle;whiteSpace=wrap;rounded=0;fontSize=14;fontColor=#FF0000;" vertex="1" parent="1">
          <mxGeometry x="438.5" y="365" width="20" height="20" as="geometry" />
        </mxCell>
        <mxCell id="XtLdloDyXn-TPDpZmK61-33" value="Бронь" style="whiteSpace=wrap;html=1;rounded=0;fontStyle=1;fontSize=16;" vertex="1" parent="1">
          <mxGeometry x="735.5" y="130" width="120" height="60" as="geometry" />
        </mxCell>
        <mxCell id="XtLdloDyXn-TPDpZmK61-34" value="" style="edgeStyle=orthogonalEdgeStyle;rounded=0;orthogonalLoop=1;jettySize=auto;html=1;endArrow=none;endFill=0;" edge="1" parent="1" source="XtLdloDyXn-TPDpZmK61-36" target="XtLdloDyXn-TPDpZmK61-2">
          <mxGeometry relative="1" as="geometry">
            <mxPoint x="1086" y="50" as="targetPoint" />
          </mxGeometry>
        </mxCell>
        <mxCell id="XtLdloDyXn-TPDpZmK61-35" value="" style="edgeStyle=orthogonalEdgeStyle;rounded=0;orthogonalLoop=1;jettySize=auto;html=1;endArrow=none;endFill=0;" edge="1" parent="1" source="XtLdloDyXn-TPDpZmK61-36" target="XtLdloDyXn-TPDpZmK61-33">
          <mxGeometry relative="1" as="geometry">
            <mxPoint x="846" y="50" as="targetPoint" />
          </mxGeometry>
        </mxCell>
        <mxCell id="XtLdloDyXn-TPDpZmK61-36" value="бронирует" style="rhombus;whiteSpace=wrap;html=1;rounded=0;fillColor=#b1ddf0;strokeColor=#10739e;" vertex="1" parent="1">
          <mxGeometry x="934.5" y="120" width="95" height="80" as="geometry" />
        </mxCell>
        <mxCell id="XtLdloDyXn-TPDpZmK61-37" value="&lt;font color=&quot;#000000&quot;&gt;1&lt;/font&gt;" style="text;html=1;strokeColor=none;fillColor=none;align=center;verticalAlign=middle;whiteSpace=wrap;rounded=0;fontSize=14;fontColor=#FF0000;" vertex="1" parent="1">
          <mxGeometry x="1082.5" y="140" width="20" height="20" as="geometry" />
        </mxCell>
        <mxCell id="XtLdloDyXn-TPDpZmK61-38" value="&lt;font color=&quot;#000000&quot;&gt;M&lt;/font&gt;" style="text;html=1;strokeColor=none;fillColor=none;align=center;verticalAlign=middle;whiteSpace=wrap;rounded=0;fontSize=14;fontColor=#FF0000;" vertex="1" parent="1">
          <mxGeometry x="857" y="140" width="20" height="20" as="geometry" />
        </mxCell>
        <mxCell id="XtLdloDyXn-TPDpZmK61-39" value="" style="edgeStyle=orthogonalEdgeStyle;rounded=0;orthogonalLoop=1;jettySize=auto;html=1;endArrow=none;endFill=0;" edge="1" parent="1" source="XtLdloDyXn-TPDpZmK61-40" target="XtLdloDyXn-TPDpZmK61-46">
          <mxGeometry relative="1" as="geometry">
            <mxPoint x="225" y="318" as="targetPoint" />
          </mxGeometry>
        </mxCell>
        <mxCell id="XtLdloDyXn-TPDpZmK61-40" value="Услуга в заказе" style="whiteSpace=wrap;html=1;rounded=0;fontStyle=1;fontSize=16;" vertex="1" parent="1">
          <mxGeometry x="30" y="387" width="130" height="60" as="geometry" />
        </mxCell>
        <mxCell id="XtLdloDyXn-TPDpZmK61-41" value="" style="edgeStyle=orthogonalEdgeStyle;rounded=0;orthogonalLoop=1;jettySize=auto;html=1;endArrow=none;endFill=0;" edge="1" parent="1" source="XtLdloDyXn-TPDpZmK61-42" target="XtLdloDyXn-TPDpZmK61-40">
          <mxGeometry relative="1" as="geometry" />
        </mxCell>
        <mxCell id="XtLdloDyXn-TPDpZmK61-42" value="содержит" style="rhombus;whiteSpace=wrap;html=1;rounded=0;fillColor=#b1ddf0;strokeColor=#10739e;" vertex="1" parent="1">
          <mxGeometry x="47.5" y="538" width="95" height="80" as="geometry" />
        </mxCell>
        <mxCell id="XtLdloDyXn-TPDpZmK61-43" value="&lt;font color=&quot;#000000&quot;&gt;1&lt;/font&gt;" style="text;html=1;strokeColor=none;fillColor=none;align=center;verticalAlign=middle;whiteSpace=wrap;rounded=0;fontSize=14;fontColor=#FF0000;" vertex="1" parent="1">
          <mxGeometry x="774.5" y="448" width="20" height="20" as="geometry" />
        </mxCell>
        <mxCell id="XtLdloDyXn-TPDpZmK61-44" value="&lt;font color=&quot;#000000&quot;&gt;M&lt;/font&gt;" style="text;html=1;strokeColor=none;fillColor=none;align=center;verticalAlign=middle;whiteSpace=wrap;rounded=0;fontSize=14;fontColor=#FF0000;" vertex="1" parent="1">
          <mxGeometry x="533" y="558" width="20" height="20" as="geometry" />
        </mxCell>
        <mxCell id="XtLdloDyXn-TPDpZmK61-45" value="" style="edgeStyle=orthogonalEdgeStyle;rounded=0;orthogonalLoop=1;jettySize=auto;html=1;endArrow=none;endFill=0;" edge="1" parent="1" source="XtLdloDyXn-TPDpZmK61-46" target="XtLdloDyXn-TPDpZmK61-11">
          <mxGeometry relative="1" as="geometry">
            <mxPoint x="305" y="458" as="sourcePoint" />
          </mxGeometry>
        </mxCell>
        <mxCell id="XtLdloDyXn-TPDpZmK61-46" value="содержит" style="rhombus;whiteSpace=wrap;html=1;rounded=0;fillColor=#b1ddf0;strokeColor=#10739e;" vertex="1" parent="1">
          <mxGeometry x="227.5" y="376" width="95" height="80" as="geometry" />
        </mxCell>
        <mxCell id="XtLdloDyXn-TPDpZmK61-47" value="&lt;font color=&quot;#000000&quot;&gt;1&lt;/font&gt;" style="text;html=1;strokeColor=none;fillColor=none;align=center;verticalAlign=middle;whiteSpace=wrap;rounded=0;fontSize=14;fontColor=#FF0000;" vertex="1" parent="1">
          <mxGeometry x="95.5" y="646" width="20" height="20" as="geometry" />
        </mxCell>
        <mxCell id="XtLdloDyXn-TPDpZmK61-48" value="&lt;font color=&quot;#000000&quot;&gt;M&lt;/font&gt;" style="text;html=1;strokeColor=none;fillColor=none;align=center;verticalAlign=middle;whiteSpace=wrap;rounded=0;fontSize=14;fontColor=#FF0000;" vertex="1" parent="1">
          <mxGeometry x="96.5" y="449" width="20" height="20" as="geometry" />
        </mxCell>
        <mxCell id="XtLdloDyXn-TPDpZmK61-49" value="&lt;font color=&quot;#000000&quot;&gt;M&lt;/font&gt;" style="text;html=1;strokeColor=none;fillColor=none;align=center;verticalAlign=middle;whiteSpace=wrap;rounded=0;fontSize=14;fontColor=#FF0000;" vertex="1" parent="1">
          <mxGeometry x="160" y="395" width="20" height="20" as="geometry" />
        </mxCell>
        <mxCell id="XtLdloDyXn-TPDpZmK61-50" value="&lt;font color=&quot;#000000&quot;&gt;1&lt;/font&gt;" style="text;html=1;strokeColor=none;fillColor=none;align=center;verticalAlign=middle;whiteSpace=wrap;rounded=0;fontSize=14;fontColor=#FF0000;" vertex="1" parent="1">
          <mxGeometry x="356" y="395" width="20" height="20" as="geometry" />
        </mxCell>
        <mxCell id="XtLdloDyXn-TPDpZmK61-51" value="" style="edgeStyle=orthogonalEdgeStyle;rounded=0;orthogonalLoop=1;jettySize=auto;html=1;endArrow=none;endFill=0;" edge="1" parent="1" source="XtLdloDyXn-TPDpZmK61-52" target="XtLdloDyXn-TPDpZmK61-11">
          <mxGeometry relative="1" as="geometry">
            <Array as="points">
              <mxPoint x="436.5" y="418" />
              <mxPoint x="436.5" y="418" />
            </Array>
          </mxGeometry>
        </mxCell>
        <mxCell id="XtLdloDyXn-TPDpZmK61-52" value="создает" style="rhombus;whiteSpace=wrap;html=1;rounded=0;fillColor=#b1ddf0;strokeColor=#10739e;" vertex="1" parent="1">
          <mxGeometry x="389.5" y="250" width="95" height="80" as="geometry" />
        </mxCell>
        <mxCell id="XtLdloDyXn-TPDpZmK61-53" value="&lt;font color=&quot;#000000&quot;&gt;1&lt;/font&gt;" style="text;html=1;strokeColor=none;fillColor=none;align=center;verticalAlign=middle;whiteSpace=wrap;rounded=0;fontSize=14;fontColor=#FF0000;" vertex="1" parent="1">
          <mxGeometry x="439.5" y="194" width="20" height="20" as="geometry" />
        </mxCell>
        <mxCell id="XtLdloDyXn-TPDpZmK61-54" value="&lt;font color=&quot;#000000&quot;&gt;M&lt;/font&gt;" style="text;html=1;strokeColor=none;fillColor=none;align=center;verticalAlign=middle;whiteSpace=wrap;rounded=0;fontSize=14;fontColor=#FF0000;" vertex="1" parent="1">
          <mxGeometry x="497.5" y="394" width="20" height="20" as="geometry" />
        </mxCell>
        <mxCell id="XtLdloDyXn-TPDpZmK61-55" value="Админ" style="whiteSpace=wrap;html=1;rounded=0;fontStyle=1;fontSize=16;" vertex="1" parent="1">
          <mxGeometry x="1103.5" y="386" width="120" height="60" as="geometry" />
        </mxCell>
        <mxCell id="XtLdloDyXn-TPDpZmK61-56" value="" style="edgeStyle=orthogonalEdgeStyle;rounded=0;orthogonalLoop=1;jettySize=auto;html=1;endArrow=none;endFill=0;" edge="1" parent="1" source="XtLdloDyXn-TPDpZmK61-58" target="XtLdloDyXn-TPDpZmK61-55">
          <mxGeometry relative="1" as="geometry">
            <mxPoint x="1102.5" y="418" as="targetPoint" />
          </mxGeometry>
        </mxCell>
        <mxCell id="XtLdloDyXn-TPDpZmK61-57" value="" style="edgeStyle=orthogonalEdgeStyle;rounded=0;orthogonalLoop=1;jettySize=auto;html=1;endArrow=none;endFill=0;" edge="1" parent="1" source="XtLdloDyXn-TPDpZmK61-58" target="XtLdloDyXn-TPDpZmK61-13">
          <mxGeometry relative="1" as="geometry">
            <mxPoint x="854.5" y="417" as="targetPoint" />
          </mxGeometry>
        </mxCell>
        <mxCell id="XtLdloDyXn-TPDpZmK61-58" value="создает" style="rhombus;whiteSpace=wrap;html=1;rounded=0;fillColor=#b1ddf0;strokeColor=#10739e;" vertex="1" parent="1">
          <mxGeometry x="933.5" y="376" width="95" height="80" as="geometry" />
        </mxCell>
        <mxCell id="XtLdloDyXn-TPDpZmK61-59" value="&lt;font color=&quot;#000000&quot;&gt;1&lt;/font&gt;" style="text;html=1;strokeColor=none;fillColor=none;align=center;verticalAlign=middle;whiteSpace=wrap;rounded=0;fontSize=14;fontColor=#FF0000;" vertex="1" parent="1">
          <mxGeometry x="1081.5" y="397" width="20" height="20" as="geometry" />
        </mxCell>
        <mxCell id="XtLdloDyXn-TPDpZmK61-60" value="&lt;font color=&quot;#000000&quot;&gt;M&lt;/font&gt;" style="text;html=1;strokeColor=none;fillColor=none;align=center;verticalAlign=middle;whiteSpace=wrap;rounded=0;fontSize=14;fontColor=#FF0000;" vertex="1" parent="1">
          <mxGeometry x="856" y="397" width="20" height="20" as="geometry" />
        </mxCell>
      </root>
    </mxGraphModel>
  </diagram>
</mxfile>
